<?xml version="1.0" encoding="UTF-8" standalone="no"?>
<!-- Created with Inkscape (http://www.inkscape.org/) -->

<svg
   xmlns:osb="http://www.openswatchbook.org/uri/2009/osb"
   xmlns:dc="http://purl.org/dc/elements/1.1/"
   xmlns:cc="http://creativecommons.org/ns#"
   xmlns:rdf="http://www.w3.org/1999/02/22-rdf-syntax-ns#"
   xmlns:svg="http://www.w3.org/2000/svg"
   xmlns="http://www.w3.org/2000/svg"
   xmlns:sodipodi="http://sodipodi.sourceforge.net/DTD/sodipodi-0.dtd"
   xmlns:inkscape="http://www.inkscape.org/namespaces/inkscape"
   width="105.83334mm"
   height="211.66667mm"
   viewBox="0 0 105.83334 211.66667"
   version="1.1"
   id="svg8"
   inkscape:version="0.92.4 (5da689c313, 2019-01-14)"
   sodipodi:docname="SV_sunny.svg">
  <title
     id="title23">svguy</title>
  <defs
     id="defs2">
    <linearGradient
       id="linearGradient6307"
       osb:paint="solid">
      <stop
         style="stop-color:#030000;stop-opacity:1;"
         offset="0"
         id="stop6305" />
    </linearGradient>
    <linearGradient
       id="linearGradient6224"
       osb:paint="solid">
      <stop
         style="stop-color:#ff0000;stop-opacity:1;"
         offset="0"
         id="stop6222" />
    </linearGradient>
  </defs>
  <sodipodi:namedview
     id="base"
     pagecolor="#ffffff"
     bordercolor="#666666"
     borderopacity="1.0"
     inkscape:pageopacity="0.0"
     inkscape:pageshadow="2"
     inkscape:zoom="0.70710678"
     inkscape:cx="92.10539"
     inkscape:cy="656.01713"
     inkscape:document-units="mm"
     inkscape:current-layer="layer2"
     showgrid="false"
     inkscape:window-width="1680"
     inkscape:window-height="997"
     inkscape:window-x="3832"
     inkscape:window-y="14"
     inkscape:window-maximized="1"
     inkscape:snap-nodes="true"
     inkscape:pagecheckerboard="true" />
  <metadata
     id="metadata5">
    <rdf:RDF>
      <cc:Work
         rdf:about="">
        <dc:format>image/svg+xml</dc:format>
        <dc:type
           rdf:resource="http://purl.org/dc/dcmitype/StillImage" />
        <dc:title>svguy</dc:title>
      </cc:Work>
    </rdf:RDF>
  </metadata>
  <g
     inkscape:label="body"
     inkscape:groupmode="layer"
     id="layer1"
     transform="translate(51.633907,-1.3481959)"
     style="opacity:1" />
  <g
     inkscape:groupmode="layer"
     id="layer4"
     inkscape:label="shirt"
     transform="translate(54.657707,1.5863191)" />
  <g
     inkscape:groupmode="layer"
     id="layer3"
     inkscape:label="arms"
     transform="translate(54.657707,1.5863191)" />
  <g
     inkscape:groupmode="layer"
     id="layer2"
     inkscape:label="face"
     transform="translate(54.657707,1.5863191)">
    <path
       inkscape:connector-curvature="0"
       style="opacity:1;fill:#222222;fill-opacity:1;stroke-width:0.13710259"
       d="m 16.386606,14.563746 c 1.273068,-0.0031 2.526434,0.07683 3.361339,0.240495 4.274449,0.837932 7.70391,2.656436 10.575915,5.60832 2.515816,2.585789 3.989132,5.326249 4.85628,9.032846 0.402406,1.720094 0.438256,5.522571 0.07045,7.4759 -1.462283,7.765752 -7.740911,13.789638 -15.6573,15.022137 -1.658465,0.258212 -4.770911,0.266886 -6.271254,0.01755 -4.1100222,-0.683081 -7.7948592,-2.638552 -10.7370512,-5.697981 -2.484124,-2.583097 -4.313901,-6.176284 -4.96478,-9.749753 -0.490823,-2.694686 -0.231231,-6.344698 0.6421,-9.028263 2.2364,-6.871965 7.39323,-11.331252 14.6451532,-12.664198 0.913312,-0.167871 2.206083,-0.253973 3.479152,-0.257034 z"
       id="path4663-7" />
    <path
       inkscape:connector-curvature="0"
       style="opacity:1;fill:#f48b22;fill-opacity:1;stroke-width:0.12588161"
       d="m 16.386606,15.162967 c 1.168877,-0.0028 2.319663,0.07054 3.086232,0.220813 3.924616,0.769351 7.073396,2.439023 9.71035,5.149314 2.309906,2.374159 3.662643,4.89033 4.45882,8.293565 0.369473,1.579315 0.402384,5.070584 0.06468,6.864044 -1.3426,7.130176 -7.107366,12.661044 -14.375845,13.792673 -1.522731,0.23708 -4.380441,0.245047 -5.757994,0.01614 -3.7736452,-0.627178 -7.1568952,-2.42261 -9.8582952,-5.231644 -2.28081,-2.371687 -3.960829,-5.670794 -4.558445,-8.951798 -0.450647,-2.474142 -0.212299,-5.825424 0.589556,-8.289356 2.053363,-6.309538 6.788136,-10.403862 13.4465402,-11.627715 0.838557,-0.154131 2.025526,-0.233186 3.194404,-0.235996 z"
       id="path4663-7-45" />
    <path
       style="fill:#222222;fill-opacity:1;stroke:#222222;stroke-width:0.26458332px;stroke-linecap:butt;stroke-linejoin:miter;stroke-opacity:1"
       d="M 27.363127,16.73608 C 35.168335,6.0204561 38.475626,6.5496228 38.475626,6.5496228 L 30.00896,19.381913 Z"
       id="path4586"
       inkscape:connector-curvature="0" />
    <path
       style="fill:#f48b22;fill-opacity:1;stroke:#f48b22;stroke-width:0.25208735px;stroke-linecap:butt;stroke-linejoin:miter;stroke-opacity:1"
       d="M 27.739529,16.816072 C 35.030492,6.7426596 38.256518,6.6519421 38.256518,6.6519421 L 30.019959,18.367236 Z"
       id="path4586-4"
       inkscape:connector-curvature="0"
       sodipodi:nodetypes="cccc" />
    <path
       style="fill:#222222;fill-opacity:1;stroke:#222222;stroke-width:0.33030257px;stroke-linecap:butt;stroke-linejoin:miter;stroke-opacity:1"
       d="m 36.620502,36.015345 c 12.671784,4.669493 13.175228,9.721621 13.175228,9.721621 L 34.890069,41.404451 Z"
       id="path4586-6"
       inkscape:connector-curvature="0" />
    <path
       style="fill:#f48b22;fill-opacity:1;stroke:#f48b22;stroke-width:0.31470275px;stroke-linecap:butt;stroke-linejoin:miter;stroke-opacity:1"
       d="m 36.658824,36.602309 c 11.89813,4.323174 11.855321,8.095663 11.855321,8.095663 L 35.375501,40.887857 Z"
       id="path4586-4-5"
       inkscape:connector-curvature="0"
       sodipodi:nodetypes="cccc" />
    <path
       style="fill:#222222;fill-opacity:1;stroke:#222222;stroke-width:0.26458332px;stroke-linecap:butt;stroke-linejoin:miter;stroke-opacity:1"
       d="m 22.909059,51.99659 c 5.139252,12.220228 2.976867,14.778016 2.976867,14.778016 L 19.276524,52.89412 Z"
       id="path4586-9"
       inkscape:connector-curvature="0" />
    <path
       style="fill:#f48b22;fill-opacity:1;stroke:#f48b22;stroke-width:0.25208735px;stroke-linecap:butt;stroke-linejoin:miter;stroke-opacity:1"
       d="m 22.655164,52.600229 c 4.855259,11.448069 3.001569,12.786752 3.001569,12.786752 L 20.007867,53.16776 Z"
       id="path4586-4-1"
       inkscape:connector-curvature="0"
       sodipodi:nodetypes="cccc" />
    <path
       style="fill:#222222;fill-opacity:1;stroke:#222222;stroke-width:0.26458332px;stroke-linecap:butt;stroke-linejoin:miter;stroke-opacity:1"
       d="M -1.9152456,41.991866 C -12.38255,50.127061 -11.750624,53.416265 -11.750624,53.416265 L 0.81171727,44.554 Z"
       id="path4586-8"
       inkscape:connector-curvature="0" />
    <path
       style="fill:#f48b22;fill-opacity:1;stroke:#f48b22;stroke-width:0.25208735px;stroke-linecap:butt;stroke-linejoin:miter;stroke-opacity:1"
       d="M -1.8235681,42.365593 C -11.664991,49.96679 -11.178969,52.556895 -11.178969,52.556895 L -0.0562713,44.578037 Z"
       id="path4586-4-3"
       inkscape:connector-curvature="0"
       sodipodi:nodetypes="cccc" />
    <path
       style="fill:#222222;fill-opacity:1;stroke:#222222;stroke-width:0.27909753px;stroke-linecap:butt;stroke-linejoin:miter;stroke-opacity:1"
       d="M 1.1868892,19.619267 C -8.76854,9.6396493 -7.8244817,6.1632524 -7.8244817,6.1632524 L 4.2053093,17.167929 Z"
       id="path4586-84"
       inkscape:connector-curvature="0" />
    <path
       style="fill:#f48b22;fill-opacity:1;stroke:#f48b22;stroke-width:0.26591608px;stroke-linecap:butt;stroke-linejoin:miter;stroke-opacity:1"
       d="M 1.3144612,19.226552 C -8.050009,9.8949763 -7.431443,7.0600073 -7.431443,7.0600073 L 3.6325008,17.225771 Z"
       id="path4586-4-9"
       inkscape:connector-curvature="0"
       sodipodi:nodetypes="cccc" />
    <path
       style="fill:#222222;fill-opacity:1;stroke:#222222;stroke-width:0.32096452px;stroke-linecap:butt;stroke-linejoin:miter;stroke-opacity:1"
       d="M 17.601092,13.831238 C 19.152418,0.61629993 14.951636,-1.13573 14.951636,-1.13573 l -2.840923,15.252058 z"
       id="path4586-85"
       inkscape:connector-curvature="0" />
    <path
       style="fill:#f48b22;fill-opacity:1;stroke:#f48b22;stroke-width:0.30580574px;stroke-linecap:butt;stroke-linejoin:miter;stroke-opacity:1"
       d="M 16.917116,13.373121 C 18.427358,0.98043813 15.098294,-0.91539957 15.098294,-0.91539957 L 12.779269,13.785438 Z"
       id="path4586-4-6"
       inkscape:connector-curvature="0"
       sodipodi:nodetypes="cccc" />
    <path
       style="fill:#222222;fill-opacity:1;stroke:#222222;stroke-width:0.30098295px;stroke-linecap:butt;stroke-linejoin:miter;stroke-opacity:1"
       d="m 36.069203,30.10983 c 13.890816,-0.02788 14.798616,-3.716047 14.798616,-3.716047 L 34.613076,25.547612 Z"
       id="path4586-86"
       inkscape:connector-curvature="0" />
    <path
       style="fill:#f48b22;fill-opacity:1;stroke:#f48b22;stroke-width:0.2867679px;stroke-linecap:butt;stroke-linejoin:miter;stroke-opacity:1"
       d="m 36.423562,29.685331 c 13.038257,0.02022 14.24922,-3.146828 14.24922,-3.146828 L 35.733795,26.400329 Z"
       id="path4586-4-52"
       inkscape:connector-curvature="0"
       sodipodi:nodetypes="cccc" />
    <path
       style="fill:#222222;fill-opacity:1;stroke:#222222;stroke-width:0.26458332px;stroke-linecap:butt;stroke-linejoin:miter;stroke-opacity:1"
       d="m 31.166296,46.962782 c 9.688536,9.048654 8.761679,12.267214 8.761679,12.267214 L 28.218757,49.26775 Z"
       id="path4586-81"
       inkscape:connector-curvature="0" />
    <path
       style="fill:#f48b22;fill-opacity:1;stroke:#f48b22;stroke-width:0.25208735px;stroke-linecap:butt;stroke-linejoin:miter;stroke-opacity:1"
       d="m 31.322309,47.773169 c 9.113523,8.460231 8.53071,11.226916 8.53071,11.226916 l -10.94336,-9.661987 z"
       id="path4586-4-57"
       inkscape:connector-curvature="0"
       sodipodi:nodetypes="cccc" />
    <path
       style="fill:#222222;fill-opacity:1;stroke:#222222;stroke-width:0.33050036px;stroke-linecap:butt;stroke-linejoin:miter;stroke-opacity:1"
       d="M -2.7516795,28.048635 C -15.662054,24.479302 -18.125528,28.580618 -18.125528,28.580618 l 14.7213163,5.210088 z"
       id="path4586-84-4"
       inkscape:connector-curvature="0" />
    <path
       style="fill:#f48b22;fill-opacity:1;stroke:#f48b22;stroke-width:0.31489122px;stroke-linecap:butt;stroke-linejoin:miter;stroke-opacity:1"
       d="M -3.0203225,28.537294 C -15.117931,25.132496 -17.19662,28.29379 -17.19662,28.29379 l 13.5765855,4.753806 z"
       id="path4586-4-9-3"
       inkscape:connector-curvature="0"
       sodipodi:nodetypes="cccc" />
    <path
       style="fill:#222222;fill-opacity:1;stroke:#222222;stroke-width:0.34882966px;stroke-linecap:butt;stroke-linejoin:miter;stroke-opacity:1"
       d="M 5.1810117,50.156769 C -2.086233,63.681043 1.1858255,67.056274 1.1858255,67.056274 L 10.583046,51.824376 Z"
       id="path4586-9-2"
       inkscape:connector-curvature="0" />
    <path
       style="fill:#f48b22;fill-opacity:1;stroke:#f48b22;stroke-width:0.33235481px;stroke-linecap:butt;stroke-linejoin:miter;stroke-opacity:1"
       d="M 5.5736402,50.910207 C -1.2947149,63.57307 1.486467,65.460982 1.486467,65.460982 L 9.5080925,52.023589 Z"
       id="path4586-4-1-7"
       inkscape:connector-curvature="0"
       sodipodi:nodetypes="cccc" />
  </g>
</svg>
