<?xml version="1.0" encoding="UTF-8" standalone="no"?>
<!-- Created with Inkscape (http://www.inkscape.org/) -->

<svg
   xmlns:osb="http://www.openswatchbook.org/uri/2009/osb"
   xmlns:dc="http://purl.org/dc/elements/1.1/"
   xmlns:cc="http://creativecommons.org/ns#"
   xmlns:rdf="http://www.w3.org/1999/02/22-rdf-syntax-ns#"
   xmlns:svg="http://www.w3.org/2000/svg"
   xmlns="http://www.w3.org/2000/svg"
   xmlns:xlink="http://www.w3.org/1999/xlink"
   xmlns:sodipodi="http://sodipodi.sourceforge.net/DTD/sodipodi-0.dtd"
   xmlns:inkscape="http://www.inkscape.org/namespaces/inkscape"
   width="105.83334mm"
   height="211.66667mm"
   viewBox="0 0 105.83334 211.66667"
   version="1.1"
   id="svg8"
   inkscape:version="0.92.4 (5da689c313, 2019-01-14)"
   sodipodi:docname="SV_sunny.svg">
  <title
     id="title23">svguy</title>
  <defs
     id="defs2">
    <linearGradient
       id="linearGradient2967">
      <stop
         style="stop-color:#f4c969;stop-opacity:1;"
         offset="0"
         id="stop2965" />
    </linearGradient>
    <linearGradient
       id="linearGradient6307"
       osb:paint="solid">
      <stop
         style="stop-color:#030000;stop-opacity:1;"
         offset="0"
         id="stop6305" />
    </linearGradient>
    <linearGradient
       id="linearGradient6224"
       osb:paint="solid">
      <stop
         style="stop-color:#ff0000;stop-opacity:1;"
         offset="0"
         id="stop6222" />
    </linearGradient>
    <radialGradient
       inkscape:collect="always"
       xlink:href="#linearGradient2967"
       id="radialGradient2975"
       cx="23.998945"
       cy="24.212515"
       fx="23.998945"
       fy="24.212515"
       r="17.879354"
       gradientTransform="matrix(1,0,0,1.0166896,0,-0.40409642)"
       gradientUnits="userSpaceOnUse" />
  </defs>
  <sodipodi:namedview
     id="base"
     pagecolor="#ffffff"
     bordercolor="#666666"
     borderopacity="1.0"
     inkscape:pageopacity="0.0"
     inkscape:pageshadow="2"
     inkscape:zoom="2.8284271"
     inkscape:cx="327.01416"
     inkscape:cy="697.91847"
     inkscape:document-units="mm"
     inkscape:current-layer="layer2"
     showgrid="false"
     inkscape:window-width="1680"
     inkscape:window-height="997"
     inkscape:window-x="3832"
     inkscape:window-y="14"
     inkscape:window-maximized="1"
     inkscape:snap-nodes="true"
     inkscape:pagecheckerboard="true" />
  <metadata
     id="metadata5">
    <rdf:RDF>
      <cc:Work
         rdf:about="">
        <dc:format>image/svg+xml</dc:format>
        <dc:type
           rdf:resource="http://purl.org/dc/dcmitype/StillImage" />
        <dc:title>svguy</dc:title>
      </cc:Work>
    </rdf:RDF>
  </metadata>
  <g
     inkscape:label="body"
     inkscape:groupmode="layer"
     id="layer1"
     transform="translate(51.633907,-1.3481959)"
     style="opacity:1" />
  <g
     inkscape:groupmode="layer"
     id="layer4"
     inkscape:label="shirt"
     transform="translate(54.657707,1.5863191)" />
  <g
     inkscape:groupmode="layer"
     id="layer3"
     inkscape:label="arms"
     transform="translate(54.657707,1.5863191)" />
  <g
     inkscape:groupmode="layer"
     id="layer2"
     inkscape:label="face"
     transform="translate(54.657707,1.5863191)">
    <path
       inkscape:connector-curvature="0"
       style="opacity:1;fill:#222222;fill-opacity:1;stroke-width:0.13710259"
       d="m 24.324106,5.435621 c 1.273068,-0.0031 2.526434,0.07683 3.361339,0.240495 4.274449,0.837932 7.70391,2.656436 10.575915,5.60832 2.515816,2.585789 3.989132,5.326249 4.85628,9.032846 0.402406,1.720094 0.438256,5.522571 0.07045,7.4759 -1.462283,7.765752 -7.740911,13.789638 -15.6573,15.022137 -1.658465,0.258212 -4.770911,0.266886 -6.271254,0.01755 C 17.149514,42.149788 13.464677,40.194317 10.522485,37.134888 8.0383608,34.551791 6.2085838,30.958604 5.5577048,27.385135 5.0668818,24.690449 5.3264738,21.040437 6.1998048,18.356872 8.4362048,11.484907 13.593035,7.02562 20.844958,5.692674 21.75827,5.524803 23.051041,5.438701 24.32411,5.43564 Z"
       id="path4663-7" />
    <path
       inkscape:connector-curvature="0"
       style="opacity:1;fill:url(#radialGradient2975);fill-opacity:1;stroke-width:0.13058971;stroke:none;stroke-opacity:1;fill-rule:nonzero"
       d="m 23.948881,6.034846 c 1.193862,-0.003 2.369246,0.07433 3.152201,0.232666 4.008505,0.810648 7.224591,2.569946 9.917911,5.42572 2.359281,2.5016 3.740933,5.152835 4.554128,8.738749 0.377371,1.66409 0.410985,5.342764 0.06606,7.232494 -1.371299,7.512912 -7.259288,13.340667 -14.683132,14.53304 -1.55528,0.249806 -4.474074,0.258201 -5.881073,0.01701 C 17.220671,41.553681 13.765104,39.661874 11.005961,36.702056 8.6763977,34.203061 6.9604679,30.726863 6.3500777,27.269741 5.889798,24.662791 6.1332408,21.131618 6.9522356,18.535427 9.0494897,11.887204 13.88547,7.573103 20.686199,6.283556 21.54268,6.121152 22.755021,6.037853 23.948884,6.034892 Z"
       id="path4663-7-45" />
    <path
       style="fill:#222222;fill-opacity:1;stroke:#222222;stroke-width:0.22683042px;stroke-linecap:butt;stroke-linejoin:miter;stroke-opacity:1"
       d="m 43.020889,21.479505 c 7.839471,-0.887042 7.950279,-4.609425 7.950279,-4.609425 l -9.269305,0.164431 z"
       id="path4586-86"
       inkscape:connector-curvature="0" />
    <path
       style="fill:#f4c969;fill-opacity:1;stroke:none;stroke-width:0.2161175px;stroke-linecap:butt;stroke-linejoin:miter;stroke-opacity:1"
       d="m 41.355706,21.03561 c 7.363372,-0.786487 8.21149,-3.354795 8.21149,-3.354795 l -8.793362,0.231227 z"
       id="path4586-4-52"
       inkscape:connector-curvature="0"
       sodipodi:nodetypes="cccc" />
    <path
       style="fill:#222222;fill-opacity:1;stroke:#222222;stroke-width:0.22683042px;stroke-linecap:butt;stroke-linejoin:miter;stroke-opacity:1"
       d="m 40.400237,33.415355 c 7.576094,2.201577 10.422016,-0.769846 10.422016,-0.769846 l -8.617178,-3.419254 z"
       id="path4586-86-7"
       inkscape:connector-curvature="0"
       inkscape:transform-center-x="-0.14077505"
       inkscape:transform-center-y="-5.6649467"
       sodipodi:nodetypes="cccc" />
    <path
       style="fill:#f4c969;fill-opacity:1;stroke:none;stroke-width:0.2161175px;stroke-linecap:butt;stroke-linejoin:miter;stroke-opacity:1;opacity:1"
       d="m 39.081368,32.177124 c 7.098005,2.110955 11.021747,0.489183 11.021747,0.489183 L 41.01061,29.678529 Z"
       id="path4586-4-52-7"
       inkscape:connector-curvature="0"
       sodipodi:nodetypes="cccc"
       inkscape:transform-center-x="0.90161444"
       inkscape:transform-center-y="-5.8816978" />
    <path
       style="fill:#222222;fill-opacity:1;stroke:#222222;stroke-width:0.22683042px;stroke-linecap:butt;stroke-linejoin:miter;stroke-opacity:1"
       d="m 36.544291,38.863175 c 4.109906,6.73445 1.238652,9.106013 1.238652,9.106013 L 32.2251,40.549117 Z"
       id="path4586-86-1"
       inkscape:connector-curvature="0" />
    <path
       style="fill:#f4c969;fill-opacity:1;stroke:none;stroke-width:0.2161175px;stroke-linecap:butt;stroke-linejoin:miter;stroke-opacity:1"
       d="m 35.172022,37.820698 c 3.89717,6.296815 2.863498,9.028081 2.863498,9.028081 l -5.68695,-7.570902 z"
       id="path4586-4-52-1"
       inkscape:connector-curvature="0"
       sodipodi:nodetypes="cccc" />
    <path
       style="fill:#222222;fill-opacity:1;stroke:#222222;stroke-width:0.22683042px;stroke-linecap:butt;stroke-linejoin:miter;stroke-opacity:1"
       d="m 19.699425,42.224517 c -1.673091,7.710053 1.864058,8.727764 1.864058,8.727764 l 2.815958,-8.318254 z"
       id="path4586-86-2"
       inkscape:connector-curvature="0"
       inkscape:transform-center-x="0.54922123"
       inkscape:transform-center-y="3.8791734"
       sodipodi:nodetypes="cccc" />
    <path
       style="fill:#f4c969;fill-opacity:1;stroke:none;stroke-width:0.2161175px;stroke-linecap:butt;stroke-linejoin:miter;stroke-opacity:1"
       d="m 20.700513,40.508907 c -1.615701,7.226848 0.558692,9.493528 0.558692,9.493528 l 2.586548,-9.04328 z"
       id="path4586-4-52-0"
       inkscape:connector-curvature="0"
       sodipodi:nodetypes="cccc"
       inkscape:transform-center-x="0.39084029"
       inkscape:transform-center-y="2.8036924" />
    <path
       style="fill:#222222;fill-opacity:1;stroke:#222222;stroke-width:0.22683042px;stroke-linecap:butt;stroke-linejoin:miter;stroke-opacity:1"
       d="M 13.123408,39.108237 C 8.0677632,45.165019 4.8990198,43.208624 4.8990198,43.208624 L 9.6706687,35.794215 Z"
       id="path4586-86-75"
       inkscape:connector-curvature="0"
       sodipodi:nodetypes="cccc" />
    <path
       style="fill:#f4c969;fill-opacity:1;stroke:none;stroke-width:0.2161175px;stroke-linecap:butt;stroke-linejoin:miter;stroke-opacity:1"
       d="M 13.669372,37.473672 C 8.9597374,43.188316 5.5072164,42.824321 5.5072164,42.824321 L 11.381839,35.268577 Z"
       id="path4586-4-52-6"
       inkscape:connector-curvature="0"
       sodipodi:nodetypes="cccc" />
    <path
       style="fill:#222222;fill-opacity:1;stroke:#222222;stroke-width:0.22683042px;stroke-linecap:butt;stroke-linejoin:miter;stroke-opacity:1"
       d="m 5.9786052,26.010873 c -7.4780185,2.514634 -7.8331132,6.972313 -7.8331132,6.972313 L 7.1732687,30.87456 Z"
       id="path4586-86-8"
       inkscape:connector-curvature="0"
       sodipodi:nodetypes="cccc" />
    <path
       style="fill:#f4c969;fill-opacity:1;stroke:none;stroke-width:0.2161175px;stroke-linecap:butt;stroke-linejoin:miter;stroke-opacity:1"
       d="m 6.6708992,26.89006 c -7.03368128,2.316275 -7.9466818,5.665727 -7.9466818,5.665727 L 7.89617,29.821606 Z"
       id="path4586-4-52-5"
       inkscape:connector-curvature="0"
       sodipodi:nodetypes="cccc" />
    <path
       style="fill:#222222;fill-opacity:1;stroke:#222222;stroke-width:0.22683042px;stroke-linecap:butt;stroke-linejoin:miter;stroke-opacity:1"
       d="m 6.4081938,18.566698 c -6.96094388,-3.71341 -6.48740988,-7.775949 -6.48740988,-7.775949 L 8.477222,14.359281 Z"
       id="path4586-86-5"
       inkscape:connector-curvature="0"
       sodipodi:nodetypes="cccc" />
    <path
       style="fill:#f4c969;fill-opacity:1;stroke:none;stroke-width:0.2161175px;stroke-linecap:butt;stroke-linejoin:miter;stroke-opacity:1"
       d="M 7.324644,18.206382 C 0.76924272,14.76189 0.42110282,11.307734 0.42110282,11.307734 L 9.016582,15.517033 Z"
       id="path4586-4-52-17"
       inkscape:connector-curvature="0"
       sodipodi:nodetypes="cccc" />
    <path
       style="fill:#222222;fill-opacity:1;stroke:#222222;stroke-width:0.22683042px;stroke-linecap:butt;stroke-linejoin:miter;stroke-opacity:1"
       d="M 18.577959,6.29004 C 15.624916,-1.0259482 11.540976,-0.60407602 11.540976,-0.60407602 L 14.180494,8.282993 Z"
       id="path4586-86-87"
       inkscape:connector-curvature="0"
       sodipodi:nodetypes="cccc" />
    <path
       style="fill:#f4c969;fill-opacity:1;stroke:none;stroke-width:0.2161175px;stroke-linecap:butt;stroke-linejoin:miter;stroke-opacity:1"
       d="M 18.128253,7.545557 C 15.399532,0.66138068 12.001894,-0.05167522 12.001894,-0.05167522 L 15.274408,8.942274 Z"
       id="path4586-4-52-03"
       inkscape:connector-curvature="0"
       sodipodi:nodetypes="cccc" />
    <path
       style="fill:#222222;fill-opacity:1;stroke:#222222;stroke-width:0.22683042px;stroke-linecap:butt;stroke-linejoin:miter;stroke-opacity:1"
       d="m 26.260814,5.644661 c 4.175142,-6.6942012 9.219745,-6.8757242 9.219745,-6.8757242 L 31.342188,7.064775 Z"
       id="path4586-86-4"
       inkscape:connector-curvature="0"
       sodipodi:nodetypes="cccc" />
    <path
       style="fill:#f4c969;fill-opacity:1;stroke:none;stroke-width:0.2161175px;stroke-linecap:butt;stroke-linejoin:miter;stroke-opacity:1"
       d="m 26.833377,6.543628 c 3.879443,-6.30775112 8.097581,-7.31043752 8.097581,-7.31043752 L 30.150647,7.524697 Z"
       id="path4586-4-52-75"
       inkscape:connector-curvature="0"
       sodipodi:nodetypes="cccc" />
    <path
       style="fill:#222222;fill-opacity:1;stroke:#222222;stroke-width:0.22683042px;stroke-linecap:butt;stroke-linejoin:miter;stroke-opacity:1"
       d="m 39.092154,12.687509 c 5.685879,-5.469453 3.88546,-9.287748 3.88546,-9.287748 l -7.260487,5.764752 z"
       id="path4586-86-58"
       inkscape:connector-curvature="0"
       sodipodi:nodetypes="cccc" />
    <path
       style="fill:#f4c969;fill-opacity:1;stroke:none;stroke-width:0.2161175px;stroke-linecap:butt;stroke-linejoin:miter;stroke-opacity:1"
       d="M 37.874253,12.552053 C 43.243199,7.451835 42.637076,4.0335 42.637076,4.0335 l -7.123473,6.391916 z"
       id="path4586-4-52-2"
       inkscape:connector-curvature="0"
       sodipodi:nodetypes="cccc" />
  </g>
</svg>
