<?xml version="1.0" encoding="UTF-8" standalone="no"?>
<!-- Created with Inkscape (http://www.inkscape.org/) -->

<svg
   xmlns:osb="http://www.openswatchbook.org/uri/2009/osb"
   xmlns:dc="http://purl.org/dc/elements/1.1/"
   xmlns:cc="http://creativecommons.org/ns#"
   xmlns:rdf="http://www.w3.org/1999/02/22-rdf-syntax-ns#"
   xmlns:svg="http://www.w3.org/2000/svg"
   xmlns="http://www.w3.org/2000/svg"
   xmlns:sodipodi="http://sodipodi.sourceforge.net/DTD/sodipodi-0.dtd"
   xmlns:inkscape="http://www.inkscape.org/namespaces/inkscape"
   width="180.59621mm"
   height="285.6637mm"
   viewBox="0 0 180.5962 285.66369"
   version="1.1"
   id="svg8"
   inkscape:version="0.92.4 (5da689c313, 2019-01-14)"
   sodipodi:docname="SV_snow.svg">
  <title
     id="title23">svguy</title>
  <defs
     id="defs2">
    <linearGradient
       id="linearGradient6307"
       osb:paint="solid">
      <stop
         style="stop-color:#030000;stop-opacity:1;"
         offset="0"
         id="stop6305" />
    </linearGradient>
    <linearGradient
       id="linearGradient6224"
       osb:paint="solid">
      <stop
         style="stop-color:#ff0000;stop-opacity:1;"
         offset="0"
         id="stop6222" />
    </linearGradient>
  </defs>
  <sodipodi:namedview
     id="base"
     pagecolor="#ffffff"
     bordercolor="#666666"
     borderopacity="1.0"
     inkscape:pageopacity="0.0"
     inkscape:pageshadow="2"
     inkscape:zoom="0.70710678"
     inkscape:cx="-8.3574943"
     inkscape:cy="559.10839"
     inkscape:document-units="mm"
     inkscape:current-layer="layer3"
     showgrid="false"
     inkscape:window-width="1680"
     inkscape:window-height="997"
     inkscape:window-x="3832"
     inkscape:window-y="14"
     inkscape:window-maximized="1"
     inkscape:snap-nodes="true"
     inkscape:pagecheckerboard="true" />
  <metadata
     id="metadata5">
    <rdf:RDF>
      <cc:Work
         rdf:about="">
        <dc:format>image/svg+xml</dc:format>
        <dc:type
           rdf:resource="http://purl.org/dc/dcmitype/StillImage" />
        <dc:title>svguy</dc:title>
      </cc:Work>
    </rdf:RDF>
  </metadata>
  <g
     inkscape:label="body"
     inkscape:groupmode="layer"
     id="layer1"
     transform="translate(51.633907,72.648834)"
     style="opacity:1" />
  <g
     inkscape:groupmode="layer"
     id="layer4"
     inkscape:label="shirt"
     transform="translate(54.657707,75.583349)" />
  <g
     inkscape:groupmode="layer"
     id="layer3"
     inkscape:label="arms"
     transform="translate(54.657707,75.583349)" />
  <g
     inkscape:groupmode="layer"
     id="layer2"
     inkscape:label="face"
     transform="translate(54.657707,75.583349)">
    <path
       inkscape:connector-curvature="0"
       style="opacity:1;fill:#000000;fill-opacity:1;stroke-width:0.24022461"
       d="m -21.608003,-54.42292 c 2.21303,-0.0054 4.39181,0.135683 5.84316,0.424732 7.4304605,1.479847 13.3920405,4.691455 18.3845705,9.904692 4.37335,4.566687 6.93448,9.406535 8.4418795,15.952649 0.69952,3.037808 0.76184,9.753253 0.12246,13.202971 -2.5419495,13.7148718 -13.4563595,24.3534827 -27.21776,26.530163 -2.88298,0.45602 -8.29348,0.47134 -10.90159,0.031 -7.14463,-1.20637 -13.55014,-4.6598703 -18.66468,-10.0630393 -4.31826,-4.5619339 -7.49904,-10.9077569 -8.63049,-17.2187577 -0.85322,-4.759007 -0.40196,-11.205188 1.11619,-15.944555 3.88763,-12.136379 12.85197,-20.011798 25.4583,-22.365875 1.58765,-0.296473 3.83493,-0.448534 6.04796,-0.45394 z"
       id="path4663-7" />
    <path
       inkscape:connector-curvature="0"
       style="opacity:1;fill:#000000;fill-opacity:1;stroke-width:0.24022461"
       d="m 22.357837,-75.5832 c 2.21303,-0.0054 4.39181,0.135683 5.84316,0.424732 7.43046,1.479847 13.39204,4.691455 18.38457,9.904692 4.37335,4.566687 6.93448,9.406536 8.44188,15.95265 0.69952,3.037807 0.76184,9.753252 0.12246,13.202971 -2.54195,13.714871 -13.45636,24.353483 -27.21776,26.5301628 -2.88299,0.45602 -8.29348,0.471339 -10.9016,0.031 C 9.8859175,-10.743361 3.4804175,-14.196862 -1.6341325,-19.600032 c -4.31825,-4.561932 -7.49903,-10.907757 -8.6304905,-17.218758 -0.85321,-4.759007 -0.40195,-11.205189 1.1162005,-15.944554 3.88763,-12.13638 12.85196,-20.011799 25.4582995,-22.365876 1.58764,-0.296473 3.83493,-0.448534 6.04796,-0.45394 z"
       id="path4663-7-4" />
    <path
       inkscape:connector-curvature="0"
       style="opacity:1;fill:#000000;fill-opacity:1;stroke-width:0.24022461"
       d="m 29.467207,-56.500155 c 2.21303,-0.0054 4.39181,0.135683 5.84316,0.424732 7.43046,1.479847 13.39204,4.691455 18.38457,9.904691 4.37335,4.566687 6.93447,9.406536 8.441876,15.95265 0.699522,3.037807 0.761839,9.753252 0.12246,13.202971 -2.541946,13.7148718 -13.456356,24.3534834 -27.217756,26.5301633 -2.88299,0.4560201 -8.29348,0.4713391 -10.9016,0.031 -7.14463,-1.206369 -13.55013,-4.6598699 -18.6646795,-10.06303949 -4.31825,-4.56193201 -7.49903,-10.90775781 -8.63049,-17.21875881 -0.85321,-4.759007 -0.40195,-11.205189 1.1162,-15.944554 3.88763,-12.13638 12.8519595,-20.011798 25.4582995,-22.365875 1.58764,-0.296473 3.83492,-0.448534 6.04796,-0.45394 z"
       id="path4663-7-5" />
    <path
       inkscape:connector-curvature="0"
       style="opacity:1;fill:#000000;fill-opacity:1;stroke-width:0.24022461"
       d="m 69.130002,-67.725476 c 2.213033,-0.0054 4.391813,0.135683 5.843159,0.424732 7.430463,1.479847 13.392041,4.691455 18.384575,9.904692 4.373348,4.566687 6.934474,9.406536 8.441874,15.95265 0.69952,3.037807 0.76184,9.753252 0.12246,13.202971 -2.541944,13.714871 -13.456358,24.3534828 -27.217755,26.5301628 -2.882987,0.45602 -8.293481,0.471339 -10.901598,0.031 -7.14463,-1.206369 -13.55013,-4.65987 -18.66468,-10.0630398 -4.31825,-4.561932 -7.49903,-10.907757 -8.63049,-17.218758 -0.85321,-4.759007 -0.40196,-11.205189 1.1162,-15.944554 3.88763,-12.13638 12.85196,-20.011799 25.458295,-22.365876 1.587646,-0.296473 3.834927,-0.448534 6.04796,-0.45394 z"
       id="path4663-7-2" />
    <path
       inkscape:connector-curvature="0"
       style="opacity:1;fill:#000000;fill-opacity:1;stroke-width:0.24022461"
       d="m 92.703174,-50.513318 c 2.213033,-0.0054 4.391813,0.135683 5.843163,0.424732 7.430463,1.479847 13.392043,4.691455 18.384573,9.904692 4.37335,4.566687 6.93447,9.406536 8.44188,15.95265 0.69952,3.037807 0.76184,9.753252 0.12246,13.202971 -2.54195,13.7148708 -13.45636,24.353483 -27.217763,26.530163 -2.88299,0.45602 -8.293481,0.471339 -10.901598,0.031 C 80.231258,14.326521 73.825757,10.87302 68.71121,5.4698498 64.392956,0.90791781 61.212177,-5.4379072 60.080717,-11.748908 c -0.85321,-4.759007 -0.40195,-11.205189 1.1162,-15.944554 3.887629,-12.13638 12.851964,-20.011799 25.458297,-22.365876 1.587646,-0.296473 3.834927,-0.448534 6.04796,-0.45394 z"
       id="path4663-7-59" />
    <path
       inkscape:connector-curvature="0"
       style="opacity:1;fill:#f4f4f4;fill-opacity:1;stroke-width:0.22056375"
       d="m -21.608003,-53.364652 c 2.03191,-0.005 4.03237,0.124577 5.36493,0.38997 6.8223305,1.35873 12.2959905,4.307489 16.87992047,9.094056 4.01541003,4.192933 6.36693003,8.63667 7.75096003,14.647027 0.64227,2.789182 0.69948,8.955011 0.11243,12.12239 -2.3339,12.5923978 -12.35504,22.3603042 -24.9901505,24.3588412 -2.64703,0.4186999 -7.61471,0.4327699 -10.00937,0.0285 -6.55989,-1.10764 -12.44114,-4.278501 -17.1371,-9.2394544 -3.96483,-4.188568 -6.88528,-10.0150248 -7.92414,-15.8095118 -0.78338,-4.369511 -0.36905,-10.288113 1.02485,-14.639594 3.56945,-11.143093 11.80011,-18.37396 23.3747,-20.535371 1.4577,-0.272207 3.52106,-0.411823 5.55297,-0.416787 z"
       id="path4663-7-45" />
    <path
       inkscape:connector-curvature="0"
       style="opacity:1;fill:#f4f4f4;fill-opacity:1;stroke-width:0.22056375"
       d="m 92.703174,-46.809109 c 2.03191,-0.005 4.03237,0.124578 5.36494,0.38997 6.822316,1.358731 12.295976,4.307489 16.879906,9.094056 4.01542,4.192932 6.36693,8.636671 7.75096,14.647026 0.64227,2.789182 0.69949,8.955011 0.11244,12.122392 -2.3339,12.5923957 -12.35504,22.360303 -24.990156,24.358835 -2.64703,0.4187 -7.61471,0.432763 -10.00937,0.02846 -6.55989,-1.107633 -12.44114,-4.2784894 -17.13709,-9.2394443 -3.96483,-4.18856589 -6.88529,-10.0150239 -7.92415,-15.8095097 -0.783377,-4.369512 -0.36905,-10.288115 1.02485,-14.639592 3.56945,-11.143095 11.80011,-18.373961 23.3747,-20.535372 1.45771,-0.272208 3.52106,-0.411824 5.55297,-0.416788 z"
       id="path4663-7-4-2" />
    <path
       inkscape:connector-curvature="0"
       style="opacity:1;fill:#f4f4f4;fill-opacity:1;stroke-width:0.22056375"
       d="m 22.357837,-72.408158 c 2.03191,-0.005 4.03237,0.124578 5.36494,0.389971 6.82232,1.35873 12.29598,4.307488 16.87992,9.094054 4.01541,4.192933 6.36692,8.63667 7.75095,14.647027 0.64227,2.789183 0.69949,8.955009 0.11244,12.122391 -2.3339,12.592397 -12.35504,22.360307 -24.99016,24.358844 -2.64703,0.41869 -7.61471,0.43276 -10.00937,0.0285 -6.55989,-1.107677 -12.4411395,-4.27853 -17.13708953,-9.239485 -3.96482997,-4.188568 -6.88528997,-10.015027 -7.92413997,-15.809515 -0.78338,-4.369512 -0.36906,-10.288115 1.02485,-14.639593 3.56945,-11.143093 11.80011,-18.373959 23.3746895,-20.53537 1.45771,-0.272208 3.52106,-0.411823 5.55297,-0.416787 z"
       id="path4663-7-5-1" />
    <path
       inkscape:connector-curvature="0"
       style="opacity:1;fill:#f4f4f4;fill-opacity:1;stroke-width:0.22056375"
       d="m 29.467207,-52.795946 c 2.03191,-0.005 4.03237,0.124578 5.36494,0.389969 6.82232,1.358732 12.29598,4.307489 16.87991,9.094056 4.01542,4.192933 6.36693,8.63667 7.75096,14.647027 0.64227,2.789182 0.69949,8.955011 0.11244,12.122393 -2.33391,12.5923948 -12.35504,22.3603027 -24.99016,24.3588336 -2.64702,0.418698 -7.61471,0.432764 -10.00937,0.02846 C 18.016037,6.7371577 12.134787,3.5663047 7.4388375,-1.3946482 3.4740075,-5.5832152 0.55354747,-11.409675 -0.48530253,-17.20416 c -0.78337997,-4.369513 -0.36906,-10.288115 1.02484,-14.639596 C 4.1089975,-42.986849 12.339657,-50.217715 23.914237,-52.379125 c 1.45771,-0.272208 3.52107,-0.411825 5.55297,-0.416789 z"
       id="path4663-7-2-2" />
    <path
       inkscape:connector-curvature="0"
       style="opacity:1;fill:#f4f4f4;fill-opacity:1;stroke-width:0.22056375"
       d="m 69.130002,-66.667102 c 2.03192,-0.005 4.03238,0.124578 5.36493,0.38997 6.82234,1.358729 12.296,4.30749 16.87992,9.094056 4.01542,4.192932 6.36693,8.63667 7.75097,14.647027 0.64227,2.78918 0.69949,8.955009 0.11244,12.12239 -2.33391,12.592398 -12.35505,22.3603058 -24.99016,24.3588458 -2.64704,0.4187 -7.61472,0.43276 -10.00938,0.0285 -6.559875,-1.10768 -12.441125,-4.2785298 -17.137085,-9.2394888 -3.96483,-4.188565 -6.88529,-10.015024 -7.92414,-15.809512 -0.78339,-4.369512 -0.36906,-10.288115 1.02485,-14.639592 3.56944,-11.143094 11.8001,-18.373962 23.374685,-20.535371 1.45771,-0.272209 3.52106,-0.411824 5.55297,-0.416789 z"
       id="path4663-7-59-7" />
    <path
       inkscape:connector-curvature="0"
       d="m -23.152913,32.562682 -1.92774,-1.176846 1.75204,-0.262416 c 0.17253,-0.03636 0.31495,-0.14487 0.40196,-0.288128 0.0757,-0.124723 0.1094,-0.275804 0.0841,-0.428319 -0.0543,-0.3277 -0.36001,-0.538181 -0.68275,-0.470174 l -2.52871,0.854814 -2.38217,-1.286919 2.43962,-1.174397 2.4861,0.971808 c 0.31924,0.08298 0.63442,-0.113012 0.70393,-0.437824 0.0696,-0.32481 -0.1329,-0.655351 -0.45211,-0.738334 l -1.7379,-0.343836 1.9805,-1.085667 c 0.28381,-0.155582 0.38267,-0.522411 0.22079,-0.819346 -0.16189,-0.296937 -0.52315,-0.411503 -0.80696,-0.25595 l -1.98052,1.085666 0.64957,-1.652608 c 0.10266,-0.314259 -0.0655,-0.663559 -0.37572,-0.780224 -0.31017,-0.116634 -0.64484,0.04361 -0.7475,0.357865 l -0.52634,2.623124 -2.15453,1.181049 0.0574,-2.461259 2.08266,-1.673036 c 0.23132,-0.235721 0.21966,-0.607391 -0.0261,-0.83013 -0.24576,-0.222797 -0.6325,-0.212201 -0.86381,0.02349 l -1.16613,1.337267 0.0528,-2.262511 c 0.008,-0.324231 -0.25981,-0.593437 -0.59722,-0.601309 -0.33741,-0.0079 -0.61705,0.248572 -0.62461,0.572803 l -0.0528,2.262511 -1.1025,-1.390193 c -0.22007,-0.246251 -0.60589,-0.274812 -0.86177,-0.06374 -0.25585,0.211036 -0.28482,0.581757 -0.0648,0.828009 l 2.00237,1.76834 -0.0574,2.461317 -2.09711,-1.280239 -0.40344,-2.644845 c -0.0879,-0.318705 -0.41475,-0.494378 -0.73003,-0.392335 -0.31533,0.102042 -0.49959,0.443149 -0.41169,0.761853 l 0.57179,1.681103 -1.9277,-1.176844 c -0.27625,-0.168649 -0.64249,-0.07103 -0.81802,0.218039 -0.17552,0.289063 -0.0939,0.660103 0.18234,0.828752 l 1.92774,1.176844 -1.75206,0.262446 c -0.32274,0.06801 -0.54035,0.388747 -0.48606,0.716447 0.0543,0.327672 0.36002,0.538153 0.68278,0.470146 l 2.52868,-0.854815 2.38218,1.28686 -2.43963,1.174398 -2.48609,-0.971808 c -0.31925,-0.08298 -0.63439,0.113012 -0.70397,0.437793 -0.0695,0.324754 0.13291,0.655351 0.45212,0.738335 l 1.73792,0.343866 -1.98052,1.085666 c -0.28375,0.155583 -0.38262,0.522412 -0.22073,0.819348 0.16188,0.296936 0.52314,0.411532 0.80695,0.25595 l 1.98052,-1.085667 -0.64957,1.652579 c -0.0549,0.168001 -0.0324,0.345942 0.0478,0.493072 0.0698,0.128121 0.1835,0.232888 0.32787,0.287151 0.3102,0.116635 0.64487,-0.0436 0.74753,-0.357864 l 0.52634,-2.623153 2.15453,-1.181049 -0.0574,2.461317 -2.08266,1.673037 c -0.23134,0.23572 -0.21966,0.607361 0.0261,0.830129 0.24573,0.222708 0.6325,0.212202 0.86382,-0.02352 l 1.16612,-1.337264 -0.0528,2.262541 c -0.008,0.324231 0.25981,0.593438 0.59722,0.601309 0.33741,0.0079 0.61705,-0.248573 0.62462,-0.572803 l 0.0528,-2.26254 1.10249,1.390191 c 0.11766,0.131646 0.28259,0.201044 0.44979,0.204945 0.14559,0.0034 0.2929,-0.04292 0.41199,-0.141167 0.25588,-0.211066 0.28485,-0.581758 0.0648,-0.82801 l -2.0024,-1.76834 0.0574,-2.461317 2.0971,1.280238 0.40344,2.644846 c 0.0879,0.318705 0.41473,0.494377 0.73,0.392334 0.31525,-0.102074 0.49959,-0.443179 0.41167,-0.761855 l -0.5718,-1.681102 1.92774,1.176845 c 0.27624,0.168648 0.64249,0.07103 0.81801,-0.218039 0.17559,-0.289033 0.094,-0.660073 -0.18231,-0.828692 z"
       id="path951"
       style="fill:#f4f4f4;fill-opacity:1;stroke-width:0.02936075" />
    <path
       inkscape:connector-curvature="0"
       d="m -3.8827825,68.817348 -1.92774,-1.176846 1.75203,-0.262416 c 0.17254,-0.03636 0.31496,-0.14487 0.40197,-0.288128 0.0757,-0.124723 0.1094,-0.275804 0.0841,-0.428319 -0.0543,-0.3277 -0.36001,-0.538181 -0.68275,-0.470174 l -2.52871,0.854814 -2.38218,-1.286919 2.43963,-1.174397 2.4861,0.971808 c 0.31924,0.08298 0.63441,-0.113012 0.70393,-0.437824 0.0696,-0.32481 -0.1329,-0.655351 -0.45212,-0.738334 l -1.73789,-0.343836 1.98049,-1.085667 c 0.28381,-0.155582 0.38268,-0.522411 0.2208,-0.819346 -0.16189,-0.296937 -0.52315,-0.411503 -0.80696,-0.25595 l -1.98052,1.085666 0.64957,-1.652608 c 0.10266,-0.314259 -0.0655,-0.663559 -0.37572,-0.780224 -0.31017,-0.116634 -0.64484,0.04361 -0.7475,0.357865 l -0.52634,2.623124 -2.15453,1.181049 0.0574,-2.461259 2.08266,-1.673036 c 0.23131,-0.235721 0.21966,-0.607391 -0.0261,-0.83013 -0.24576,-0.222797 -0.6325,-0.212201 -0.86381,0.02349 l -1.16613,1.337267 0.0528,-2.262511 c 0.008,-0.324231 -0.25981,-0.593437 -0.59722,-0.601309 -0.3374105,-0.0079 -0.6170505,0.248572 -0.6246105,0.572803 l -0.0528,2.262511 -1.1025,-1.390193 c -0.22007,-0.246251 -0.60589,-0.274812 -0.86177,-0.06374 -0.25585,0.211036 -0.28483,0.581757 -0.0648,0.828009 l 2.00237,1.76834 -0.0574,2.461317 -2.09711,-1.280239 -0.40344,-2.644845 c -0.0879,-0.318705 -0.41475,-0.494378 -0.73003,-0.392335 -0.31533,0.102042 -0.49959,0.443149 -0.41169,0.761853 l 0.57179,1.681103 -1.92771,-1.176844 c -0.27624,-0.168649 -0.64248,-0.07103 -0.81801,0.218039 -0.17553,0.289063 -0.0939,0.660103 0.18234,0.828752 l 1.92774,1.176844 -1.75207,0.262446 c -0.32273,0.06801 -0.54034,0.388747 -0.48605,0.716447 0.0543,0.327672 0.36002,0.538153 0.68278,0.470146 l 2.52868,-0.854815 2.38218,1.28686 -2.43963,1.174398 -2.4861,-0.971808 c -0.31924,-0.08298 -0.63438,0.113012 -0.70396,0.437793 -0.0695,0.324754 0.13291,0.655351 0.45212,0.738335 l 1.73792,0.343866 -1.98052,1.085666 c -0.28375,0.155583 -0.38262,0.522412 -0.22074,0.819348 0.16189,0.296936 0.52315,0.411532 0.80696,0.25595 l 1.98052,-1.085667 -0.64957,1.652579 c -0.0549,0.168001 -0.0324,0.345942 0.0478,0.493072 0.0698,0.128121 0.1835,0.232888 0.32787,0.287151 0.3102,0.116635 0.64487,-0.0436 0.74753,-0.357864 l 0.52634,-2.623153 2.15453,-1.181049 -0.0574,2.461317 -2.08266,1.673037 c -0.23134,0.23572 -0.21966,0.607361 0.0261,0.830129 0.24573,0.222708 0.6325,0.212202 0.86382,-0.02352 l 1.16612,-1.337264 -0.0528,2.262541 c -0.008,0.324231 0.25981,0.593438 0.59722,0.601309 0.3374105,0.0079 0.6170505,-0.248573 0.6246205,-0.572803 l 0.0528,-2.26254 1.10249,1.390191 c 0.11766,0.131646 0.28259,0.201044 0.44979,0.204945 0.14559,0.0034 0.29289,-0.04292 0.41199,-0.141167 0.25588,-0.211066 0.28485,-0.581758 0.0648,-0.82801 l -2.0024,-1.76834 0.0574,-2.461317 2.0971,1.280238 0.40344,2.644846 c 0.0879,0.318705 0.41473,0.494377 0.73,0.392334 0.31525,-0.102074 0.49959,-0.443179 0.41167,-0.761855 l -0.5718,-1.681102 1.92774,1.176845 c 0.27624,0.168648 0.64249,0.07103 0.81801,-0.218039 0.17559,-0.289033 0.094,-0.660073 -0.18231,-0.828692 z"
       id="path951-1"
       style="fill:#f4f4f4;fill-opacity:1;stroke-width:0.02936075" />
    <path
       inkscape:connector-curvature="0"
       d="m 35.031657,43.373289 -1.92774,-1.176847 1.75204,-0.262415 c 0.17253,-0.03636 0.31495,-0.144871 0.40196,-0.288128 0.0757,-0.124723 0.1094,-0.275805 0.0841,-0.42832 -0.0543,-0.3277 -0.36001,-0.538181 -0.68275,-0.470173 l -2.5287,0.854814 -2.38218,-1.28692 2.43963,-1.174397 2.48609,0.971808 c 0.31924,0.08298 0.63442,-0.113012 0.70393,-0.437824 0.0696,-0.32481 -0.1329,-0.655351 -0.45211,-0.738333 l -1.73789,-0.343837 1.98049,-1.085666 c 0.28381,-0.155583 0.38267,-0.522412 0.22079,-0.819347 -0.16188,-0.296937 -0.52315,-0.411503 -0.80696,-0.25595 l -1.98052,1.085666 0.64957,-1.652608 c 0.10266,-0.314259 -0.0655,-0.663559 -0.37572,-0.780224 -0.31017,-0.116634 -0.64484,0.04361 -0.7475,0.357865 l -0.52634,2.623124 -2.15452,1.181049 0.0574,-2.461259 2.08265,-1.673036 c 0.23132,-0.235721 0.21967,-0.607391 -0.0261,-0.83013 -0.24576,-0.222797 -0.6325,-0.212201 -0.86381,0.02349 l -1.16612,1.337267 0.0528,-2.262511 c 0.008,-0.324231 -0.25982,-0.593437 -0.59723,-0.601309 -0.33741,-0.0079 -0.61705,0.248572 -0.62461,0.572803 l -0.0528,2.262511 -1.10249,-1.390193 c -0.22007,-0.246251 -0.6059,-0.274812 -0.86178,-0.06374 -0.25585,0.211036 -0.28482,0.581757 -0.0648,0.828009 l 2.00237,1.76834 -0.0574,2.461318 -2.09711,-1.28024 -0.40344,-2.644845 c -0.0879,-0.318705 -0.41475,-0.494378 -0.73002,-0.392335 -0.31534,0.102042 -0.4996,0.443149 -0.4117,0.761853 l 0.5718,1.681103 -1.92771,-1.176843 c -0.27625,-0.16865 -0.64249,-0.07103 -0.81802,0.218038 -0.17552,0.289064 -0.0939,0.660103 0.18235,0.828752 l 1.92773,1.176844 -1.75206,0.262446 c -0.32274,0.06801 -0.54035,0.388747 -0.48606,0.716447 0.0543,0.327672 0.36002,0.538154 0.68278,0.470146 l 2.52868,-0.854815 2.38218,1.28686 -2.43963,1.174398 -2.48609,-0.971807 c -0.31924,-0.08298 -0.63439,0.113012 -0.70396,0.437792 -0.0695,0.324754 0.1329,0.655352 0.45211,0.738335 l 1.73792,0.343866 -1.98052,1.085667 c -0.28375,0.155583 -0.38262,0.522412 -0.22073,0.819348 0.16188,0.296936 0.52315,0.411532 0.80695,0.25595 l 1.98053,-1.085667 -0.64958,1.652579 c -0.0549,0.168001 -0.0324,0.345942 0.0478,0.493072 0.0698,0.128121 0.1835,0.232888 0.32787,0.287151 0.31021,0.116635 0.64487,-0.0436 0.74753,-0.357864 l 0.52634,-2.623154 2.15453,-1.181048 -0.0574,2.461317 -2.08266,1.673037 c -0.23134,0.23572 -0.21966,0.607361 0.0261,0.830129 0.24573,0.222708 0.6325,0.212202 0.86382,-0.02352 l 1.16612,-1.337264 -0.0528,2.262541 c -0.008,0.324231 0.25981,0.593438 0.59722,0.601309 0.33741,0.0079 0.61706,-0.248573 0.62462,-0.572803 l 0.0528,-2.26254 1.10249,1.390191 c 0.11767,0.131646 0.2826,0.201044 0.44979,0.204945 0.14559,0.0034 0.2929,-0.04292 0.41199,-0.141167 0.25588,-0.211066 0.28485,-0.581758 0.0648,-0.82801 l -2.0024,-1.76834 0.0574,-2.461318 2.09711,1.280238 0.40343,2.644847 c 0.0879,0.318705 0.41473,0.494377 0.73,0.392334 0.31525,-0.102074 0.4996,-0.443179 0.41167,-0.761855 l -0.5718,-1.681102 1.92774,1.176845 c 0.27625,0.168648 0.64249,0.07103 0.81802,-0.218039 0.17558,-0.289033 0.094,-0.660073 -0.18232,-0.828692 z"
       id="path951-5"
       style="fill:#f4f4f4;fill-opacity:1;stroke-width:0.02936075" />
    <path
       inkscape:connector-curvature="0"
       d="m 35.290997,107.58895 -1.92774,-1.17685 1.75204,-0.26242 c 0.17253,-0.0364 0.31495,-0.14487 0.40196,-0.28812 0.0757,-0.12473 0.1094,-0.27581 0.0841,-0.42832 -0.0543,-0.3277 -0.36001,-0.53818 -0.68275,-0.47018 l -2.52871,0.85482 -2.38218,-1.28692 2.43963,-1.1744 2.4861,0.97181 c 0.31924,0.083 0.63441,-0.11301 0.70393,-0.43783 0.0696,-0.32481 -0.1329,-0.65535 -0.45212,-0.73833 l -1.73789,-0.34384 1.9805,-1.08566 c 0.2838,-0.15558 0.38267,-0.52241 0.22079,-0.81935 -0.16189,-0.29694 -0.52315,-0.4115 -0.80696,-0.25595 l -1.98052,1.08567 0.64957,-1.65261 c 0.10266,-0.314259 -0.0655,-0.663559 -0.37572,-0.780224 -0.31017,-0.116634 -0.64484,0.04361 -0.7475,0.357865 l -0.52634,2.623119 -2.15453,1.18105 0.0574,-2.46126 2.08266,-1.673031 c 0.23131,-0.235721 0.21966,-0.607391 -0.0261,-0.83013 -0.24576,-0.222797 -0.6325,-0.212201 -0.86381,0.02349 l -1.16613,1.337266 0.0528,-2.26251 c 0.008,-0.324231 -0.25981,-0.593437 -0.59722,-0.601309 -0.33741,-0.0079 -0.61705,0.248572 -0.62461,0.572803 l -0.0528,2.262511 -1.10249,-1.390193 c -0.22008,-0.246251 -0.6059,-0.274812 -0.86178,-0.06374 -0.25585,0.211036 -0.28482,0.581757 -0.0648,0.828009 l 2.00237,1.768344 -0.0574,2.46131 -2.09711,-1.28024 -0.40344,-2.644841 c -0.0879,-0.318705 -0.41475,-0.494378 -0.73003,-0.392335 -0.31533,0.102042 -0.49959,0.443149 -0.41169,0.761853 l 0.57179,1.681103 -1.92771,-1.17684 c -0.27624,-0.16865 -0.64248,-0.071 -0.81801,0.21803 -0.17553,0.28907 -0.0939,0.66011 0.18234,0.82876 l 1.92774,1.17684 -1.75207,0.26245 c -0.32273,0.068 -0.54034,0.38874 -0.48605,0.71644 0.0543,0.32768 0.36002,0.53816 0.68278,0.47015 l 2.52868,-0.85482 2.38218,1.28686 -2.43963,1.1744 -2.4861,-0.97181 c -0.31924,-0.083 -0.63438,0.11302 -0.70396,0.4378 -0.0695,0.32475 0.13291,0.65535 0.45212,0.73833 l 1.73792,0.34387 -1.98052,1.08566 c -0.28375,0.15559 -0.38262,0.52242 -0.22074,0.81935 0.16189,0.29694 0.52315,0.41153 0.80696,0.25595 l 1.98052,-1.08566 -0.64957,1.65257 c -0.0549,0.16801 -0.0324,0.34595 0.0478,0.49308 0.0698,0.12812 0.1835,0.23288 0.32787,0.28715 0.3102,0.11663 0.64487,-0.0436 0.74753,-0.35787 l 0.52634,-2.62315 2.15453,-1.18105 -0.0574,2.46132 -2.08266,1.67304 c -0.23134,0.23572 -0.21966,0.60736 0.0261,0.83012 0.24573,0.22271 0.6325,0.21221 0.86381,-0.0235 l 1.16613,-1.33726 -0.0528,2.26254 c -0.008,0.32423 0.25981,0.59344 0.59722,0.60131 0.33741,0.008 0.61705,-0.24858 0.62462,-0.57281 l 0.0528,-2.26253 1.10249,1.39019 c 0.11766,0.13164 0.28259,0.20104 0.44979,0.20494 0.14559,0.003 0.29289,-0.0429 0.41199,-0.14116 0.25588,-0.21107 0.28485,-0.58176 0.0648,-0.82801 l -2.0024,-1.76834 0.0574,-2.46132 2.0971,1.28024 0.40344,2.64484 c 0.0879,0.31871 0.41473,0.49438 0.73,0.39234 0.31525,-0.10208 0.49959,-0.44318 0.41167,-0.76186 l -0.5718,-1.6811 1.92774,1.17685 c 0.27624,0.16864 0.64249,0.071 0.81801,-0.21804 0.17559,-0.28904 0.094,-0.66008 -0.18231,-0.8287 z"
       id="path951-0"
       style="fill:#f4f4f4;fill-opacity:1;stroke-width:0.02936075" />
    <path
       inkscape:connector-curvature="0"
       d="m 100.13851,38.134806 -1.927734,-1.176846 1.752036,-0.262416 c 0.172538,-0.03636 0.314948,-0.14487 0.401968,-0.288128 0.0757,-0.124723 0.1094,-0.275804 0.0841,-0.428319 -0.0543,-0.3277 -0.36002,-0.538181 -0.682748,-0.470174 l -2.528713,0.854814 -2.382178,-1.286919 2.43963,-1.174397 2.486091,0.971808 c 0.319238,0.08298 0.634418,-0.113012 0.703938,-0.437824 0.0696,-0.32481 -0.13291,-0.655351 -0.45212,-0.738334 l -1.73789,-0.343836 1.98049,-1.085667 c 0.28381,-0.155582 0.38268,-0.522411 0.22079,-0.819346 -0.16188,-0.296937 -0.523148,-0.411503 -0.806948,-0.25595 l -1.980526,1.085666 0.64957,-1.652608 c 0.102663,-0.314259 -0.06552,-0.663559 -0.37572,-0.780224 -0.310172,-0.116634 -0.644838,0.04361 -0.7475,0.357865 l -0.52634,2.623124 -2.154526,1.181049 0.05742,-2.461259 2.082656,-1.673036 c 0.231315,-0.235721 0.219663,-0.607391 -0.0261,-0.83013 -0.245759,-0.222797 -0.632498,-0.212201 -0.863813,0.02349 l -1.166124,1.337266 0.05279,-2.26251 c 0.0076,-0.324231 -0.25981,-0.593437 -0.597221,-0.601309 -0.33741,-0.0079 -0.617051,0.248572 -0.624614,0.572803 l -0.05279,2.262511 -1.102492,-1.390193 c -0.220072,-0.246251 -0.605898,-0.274812 -0.861778,-0.06374 -0.25585,0.211036 -0.284822,0.581757 -0.06475,0.828009 l 2.002369,1.76834 -0.05742,2.461317 -2.097106,-1.280239 -0.403438,-2.644845 c -0.08793,-0.318705 -0.414754,-0.494378 -0.730029,-0.392335 -0.315334,0.102042 -0.499592,0.443149 -0.411697,0.761853 l 0.571797,1.681103 -1.927709,-1.176844 c -0.276244,-0.168649 -0.642488,-0.07103 -0.818014,0.218039 -0.175526,0.289063 -0.0939,0.660102 0.182342,0.828752 l 1.927738,1.176844 -1.752066,0.262446 c -0.322734,0.06801 -0.540349,0.388747 -0.486055,0.716447 0.05432,0.327672 0.360016,0.538153 0.68278,0.470146 l 2.528678,-0.854815 2.38218,1.28686 -2.43963,1.174398 -2.486093,-0.971808 c -0.319242,-0.08298 -0.634389,0.113012 -0.703962,0.437793 -0.06951,0.324754 0.132905,0.655351 0.452116,0.738335 l 1.73792,0.343866 -1.980522,1.085666 c -0.283749,0.155583 -0.382616,0.522412 -0.220732,0.819348 0.161884,0.296936 0.523148,0.411532 0.806956,0.25595 l 1.980522,-1.085667 -0.649571,1.652579 c -0.05487,0.168001 -0.03238,0.345942 0.04782,0.493072 0.06984,0.128121 0.183496,0.232888 0.327869,0.287151 0.310203,0.116635 0.644868,-0.0436 0.747531,-0.357864 l 0.52634,-2.623153 2.154525,-1.181049 -0.05742,2.461317 -2.082656,1.673037 c -0.231345,0.23572 -0.219663,0.607361 0.02607,0.830129 0.245731,0.222708 0.632498,0.212202 0.863814,-0.02352 l 1.166123,-1.337264 -0.05279,2.262541 c -0.0076,0.324231 0.259813,0.593438 0.597223,0.601308 0.337411,0.008 0.617052,-0.248572 0.624615,-0.572802 l 0.05279,-2.26254 1.102493,1.390191 c 0.117663,0.131646 0.282595,0.201044 0.449788,0.204945 0.14559,0.0034 0.292897,-0.04292 0.41199,-0.141167 0.255879,-0.211066 0.28485,-0.581758 0.06478,-0.82801 l -2.002399,-1.76834 0.05742,-2.461317 2.097104,1.280238 0.403439,2.644846 c 0.08789,0.318705 0.414725,0.494377 0.73,0.392334 0.315246,-0.102074 0.499593,-0.443179 0.411667,-0.761855 l -0.571796,-1.681102 1.927738,1.176845 c 0.276246,0.168648 0.642484,0.07103 0.818014,-0.218039 0.17558,-0.289033 0.094,-0.660073 -0.18232,-0.828692 z"
       id="path951-07"
       style="fill:#f4f4f4;fill-opacity:1;stroke-width:0.02936075" />
    <path
       inkscape:connector-curvature="0"
       d="m 69.830151,98.751537 -1.92774,-1.17685 1.752036,-0.26241 c 0.172536,-0.0364 0.314952,-0.14487 0.401966,-0.28813 0.07574,-0.12473 0.109401,-0.27581 0.08412,-0.42832 -0.05432,-0.3277 -0.360014,-0.538182 -0.682749,-0.470175 l -2.52871,0.854815 -2.382177,-1.28692 2.439629,-1.174397 2.486094,0.971808 c 0.319241,0.08298 0.634416,-0.113012 0.703933,-0.437824 0.06958,-0.32481 -0.132905,-0.655351 -0.452117,-0.738334 l -1.737891,-0.343836 1.980492,-1.085667 c 0.283809,-0.155582 0.382676,-0.522411 0.220793,-0.819346 -0.161885,-0.296937 -0.523149,-0.411503 -0.806957,-0.25595 l -1.980522,1.085666 0.64957,-1.652608 c 0.102663,-0.314259 -0.06552,-0.663559 -0.37572,-0.780224 -0.310172,-0.116634 -0.644838,0.04361 -0.7475,0.357865 l -0.526339,2.623124 -2.154527,1.181049 0.05742,-2.461259 2.082657,-1.673036 c 0.231314,-0.235721 0.219662,-0.607391 -0.0261,-0.83013 -0.245759,-0.222797 -0.632499,-0.212201 -0.863813,0.02349 l -1.166125,1.337267 0.05279,-2.262511 c 0.0076,-0.324231 -0.25981,-0.593437 -0.597221,-0.601309 -0.337409,-0.0079 -0.61705,0.248572 -0.624614,0.572803 l -0.05279,2.262511 -1.102492,-1.390193 c -0.22007,-0.246251 -0.6059,-0.274812 -0.86178,-0.06374 -0.25585,0.211036 -0.28482,0.581757 -0.0647,0.828009 l 2.002372,1.76834 -0.05742,2.461317 -2.097102,-1.280239 -0.40344,-2.644845 c -0.0879,-0.318705 -0.41476,-0.494378 -0.73003,-0.392335 -0.31533,0.102042 -0.49959,0.443149 -0.4117,0.761853 l 0.5718,1.681103 -1.92771,-1.176844 c -0.27624,-0.168649 -0.64249,-0.07103 -0.81801,0.218039 -0.17553,0.289063 -0.0939,0.660103 0.18234,0.828752 l 1.92774,1.176844 -1.75207,0.262446 c -0.32273,0.06801 -0.54035,0.388747 -0.48605,0.716447 0.0543,0.327672 0.36001,0.538153 0.68278,0.470146 l 2.52867,-0.854815 2.382184,1.28686 -2.439634,1.174393 -2.48609,-0.971803 c -0.31924,-0.08298 -0.63439,0.113012 -0.70396,0.437793 -0.0695,0.32475 0.1329,0.65535 0.45211,0.73833 l 1.73792,0.34387 -1.98052,1.08567 c -0.28375,0.15558 -0.38261,0.52241 -0.22073,0.81934 0.16188,0.29694 0.52315,0.41154 0.80696,0.25595 l 1.98052,-1.08566 -0.64957,1.652583 c -0.0549,0.168 -0.0324,0.34594 0.0478,0.49307 0.0698,0.12812 0.18349,0.23289 0.32787,0.28715 0.3102,0.11663 0.64486,-0.0436 0.74753,-0.35786 l 0.52634,-2.623163 2.154523,-1.18105 -0.05742,2.46132 -2.082653,1.673043 c -0.23135,0.23572 -0.21967,0.60736 0.0261,0.83013 0.24573,0.2227 0.6325,0.2122 0.86381,-0.0235 l 1.166124,-1.33727 -0.05279,2.26254 c -0.0076,0.32423 0.259814,0.59344 0.597223,0.60131 0.337411,0.008 0.617052,-0.24857 0.624616,-0.5728 l 0.05279,-2.26254 1.102493,1.39019 c 0.117662,0.13165 0.282594,0.20104 0.449788,0.20495 0.145589,0.003 0.292896,-0.0429 0.411989,-0.14117 0.255879,-0.21107 0.284851,-0.58176 0.06478,-0.82801 l -2.002398,-1.768343 0.05742,-2.46132 2.097103,1.28024 0.40344,2.644853 c 0.08789,0.3187 0.414724,0.49437 0.729999,0.39233 0.315246,-0.10207 0.499593,-0.44318 0.411667,-0.76186 l -0.571796,-1.681103 1.927738,1.17685 c 0.276244,0.16865 0.642488,0.071 0.818014,-0.21804 0.175584,-0.28903 0.09396,-0.66007 -0.182313,-0.82869 z"
       id="path951-3"
       style="fill:#f4f4f4;fill-opacity:1;stroke-width:0.02936075" />
    <path
       inkscape:connector-curvature="0"
       d="m 72.449398,140.65939 -1.92774,-1.17684 1.75203,-0.26242 c 0.17254,-0.0364 0.31495,-0.14487 0.40197,-0.28813 0.0757,-0.12472 0.1094,-0.2758 0.0841,-0.42832 -0.0543,-0.3277 -0.36002,-0.53818 -0.68275,-0.47017 l -2.52871,0.85481 -2.38218,-1.28692 2.43963,-1.17439 2.48609,0.97181 c 0.31925,0.083 0.63442,-0.11302 0.70394,-0.43783 0.0696,-0.32481 -0.13291,-0.65535 -0.45212,-0.73833 l -1.73789,-0.34384 1.98049,-1.08567 c 0.28381,-0.15558 0.38268,-0.52241 0.22079,-0.81934 -0.16188,-0.29694 -0.52314,-0.4115 -0.80695,-0.25595 l -1.98052,1.08566 0.64957,-1.6526 c 0.10266,-0.31426 -0.0655,-0.66356 -0.37572,-0.78023 -0.31018,-0.11663 -0.64484,0.0436 -0.74751,0.35787 l -0.52633,2.62312 -2.15453,1.18105 0.0574,-2.46126 2.08266,-1.67303 c 0.23131,-0.23573 0.21966,-0.6074 -0.0261,-0.83013 -0.24576,-0.2228 -0.6325,-0.21221 -0.86382,0.0235 l -1.16612,1.33726 0.0528,-2.26251 c 0.008,-0.32423 -0.25981,-0.59344 -0.59722,-0.60131 -0.33741,-0.008 -0.61705,0.24857 -0.62462,0.57281 l -0.0528,2.26251 -1.10249,-1.3902 c -0.22007,-0.24625 -0.6059,-0.27481 -0.86178,-0.0637 -0.25585,0.21104 -0.28482,0.58176 -0.0648,0.82801 l 2.00237,1.76834 -0.0574,2.46132 -2.0971,-1.28024 -0.40344,-2.64484 c -0.0879,-0.31871 -0.41476,-0.49438 -0.73003,-0.39234 -0.31533,0.10204 -0.499591,0.44315 -0.411701,0.76185 l 0.571801,1.68111 -1.927711,-1.17685 c -0.27624,-0.16865 -0.64249,-0.071 -0.81801,0.21804 -0.17553,0.28906 -0.0939,0.6601 0.18234,0.82875 l 1.92774,1.17685 -1.75207,0.26244 c -0.32273,0.068 -0.54035,0.38875 -0.48605,0.71645 0.0543,0.32767 0.36001,0.53815 0.68278,0.47015 l 2.528671,-0.85482 2.38218,1.28686 -2.43963,1.1744 -2.486091,-0.97181 c -0.31924,-0.083 -0.63439,0.11301 -0.70396,0.43779 -0.0695,0.32476 0.1329,0.65536 0.45211,0.73834 l 1.73792,0.34387 -1.98052,1.08566 c -0.28375,0.15558 -0.38261,0.52241 -0.22073,0.81935 0.16188,0.29694 0.52315,0.41153 0.80696,0.25595 l 1.980521,-1.08567 -0.649571,1.65258 c -0.0549,0.168 -0.0324,0.34594 0.0478,0.49307 0.0698,0.12812 0.183491,0.23289 0.327871,0.28715 0.3102,0.11664 0.64486,-0.0436 0.74753,-0.35786 l 0.52634,-2.62315 2.15452,-1.18105 -0.0574,2.46132 -2.08265,1.67303 c -0.23135,0.23572 -0.21967,0.60736 0.0261,0.83013 0.24573,0.22271 0.6325,0.2122 0.86381,-0.0235 l 1.16612,-1.33726 -0.0528,2.26254 c -0.008,0.32423 0.25982,0.59344 0.59723,0.60131 0.33741,0.008 0.61705,-0.24858 0.62461,-0.57281 l 0.0528,-2.26254 1.1025,1.3902 c 0.11766,0.13164 0.28259,0.20104 0.44978,0.20494 0.14559,0.003 0.2929,-0.0429 0.41199,-0.14117 0.25588,-0.21106 0.28485,-0.58175 0.0648,-0.82801 l -2.0024,-1.76834 0.0574,-2.46131 2.09711,1.28023 0.40344,2.64485 c 0.0879,0.31871 0.41472,0.49438 0.73,0.39233 0.31524,-0.10207 0.49959,-0.44317 0.41166,-0.76185 l -0.57179,-1.6811 1.92774,1.17684 c 0.27624,0.16865 0.64248,0.071 0.81801,-0.21804 0.17558,-0.28903 0.094,-0.66007 -0.18231,-0.82869 z"
       id="path951-6"
       style="fill:#f4f4f4;fill-opacity:1;stroke-width:0.02936075" />
    <path
       inkscape:connector-curvature="0"
       d="m -10.617973,119.70547 -1.92774,-1.17685 1.75203,-0.26242 c 0.17254,-0.0364 0.31495,-0.14487 0.40197,-0.28812 0.0757,-0.12473 0.1094,-0.27581 0.0841,-0.42832 -0.0543,-0.3277 -0.36002,-0.53818 -0.68275,-0.47018 l -2.52871,0.85482 -2.38218,-1.28692 2.43963,-1.1744 2.48609,0.97181 c 0.31925,0.083 0.63442,-0.11301 0.70394,-0.43783 0.0696,-0.32481 -0.13291,-0.65535 -0.45212,-0.73833 l -1.73789,-0.34384 1.98049,-1.08566 c 0.28381,-0.15558 0.38268,-0.52241 0.2208,-0.81935 -0.16189,-0.29694 -0.52315,-0.4115 -0.80696,-0.25595 l -1.98052,1.08567 0.64957,-1.65261 c 0.10266,-0.31426 -0.0655,-0.66356 -0.37572,-0.78022 -0.31018,-0.11664 -0.64484,0.0436 -0.74751,0.35786 l -0.52633,2.62312 -2.15453,1.18105 0.0574,-2.46126 2.08266,-1.67303 c 0.23131,-0.23572 0.21966,-0.60739 -0.0261,-0.83013 -0.24576,-0.2228 -0.6325,-0.2122 -0.86382,0.0235 l -1.16612,1.33726 0.0528,-2.2625 c 0.008,-0.32424 -0.25981,-0.59344 -0.59722,-0.60131 -0.33741,-0.008 -0.61705,0.24857 -0.62462,0.5728 l -0.0528,2.26251 -1.10249,-1.39019 c -0.22007,-0.24625 -0.6059,-0.27481 -0.86178,-0.0637 -0.25585,0.21103 -0.28482,0.58175 -0.0648,0.82801 l 2.00237,1.76834 -0.0574,2.46131 -2.0971,-1.28024 -0.40344,-2.64484 c -0.0879,-0.31871 -0.41476,-0.49438 -0.73003,-0.39234 -0.31533,0.10205 -0.49959,0.44315 -0.4117,0.76186 l 0.5718,1.6811 -1.92771,-1.17684 c -0.27624,-0.16865 -0.64249,-0.071 -0.81801,0.21803 -0.17553,0.28907 -0.0939,0.66011 0.18234,0.82876 l 1.92774,1.17684 -1.75207,0.26245 c -0.32273,0.068 -0.54035,0.38874 -0.48605,0.71644 0.0543,0.32768 0.36001,0.53816 0.68278,0.47015 l 2.52867,-0.85482 2.38218,1.28686 -2.43963,1.1744 -2.48609,-0.97181 c -0.31924,-0.083 -0.63439,0.11302 -0.70396,0.4378 -0.0695,0.32475 0.1329,0.65535 0.45211,0.73833 l 1.73792,0.34387 -1.98052,1.08566 c -0.28375,0.15559 -0.38261,0.52242 -0.22073,0.81935 0.16188,0.29694 0.52315,0.41153 0.80696,0.25595 l 1.98052,-1.08566 -0.64957,1.65257 c -0.0549,0.16801 -0.0324,0.34595 0.0478,0.49308 0.0698,0.12812 0.18349,0.23288 0.32787,0.28715 0.3102,0.11663 0.64486,-0.0436 0.74753,-0.35787 l 0.52634,-2.62315 2.15452,-1.18105 -0.0574,2.46132 -2.08265,1.67304 c -0.23135,0.23572 -0.21967,0.60736 0.0261,0.83012 0.24573,0.22271 0.6325,0.21221 0.86381,-0.0235 l 1.16612,-1.33726 -0.0528,2.26254 c -0.008,0.32423 0.25982,0.59344 0.59723,0.60131 0.33741,0.008 0.61705,-0.24857 0.62461,-0.5728 l 0.0528,-2.26254 1.1025,1.39019 c 0.11766,0.13164 0.28259,0.20104 0.44978,0.20494 0.14559,0.003 0.2929,-0.0429 0.41199,-0.14116 0.25588,-0.21107 0.28485,-0.58176 0.0648,-0.82801 l -2.0024,-1.76834 0.0574,-2.46132 2.09711,1.28024 0.40344,2.64484 c 0.0879,0.31871 0.41472,0.49438 0.73,0.39234 0.31524,-0.10208 0.49959,-0.44318 0.41166,-0.76186 l -0.57179,-1.6811 1.92774,1.17685 c 0.27624,0.16864 0.64248,0.071 0.81801,-0.21804 0.17559,-0.28904 0.094,-0.66008 -0.18231,-0.8287 z"
       id="path951-2"
       style="fill:#f4f4f4;fill-opacity:1;stroke-width:0.02936075" />
    <path
       inkscape:connector-curvature="0"
       d="m 18.567907,150.01379 -1.92774,-1.17685 1.75203,-0.26242 c 0.17254,-0.0364 0.31495,-0.14487 0.40197,-0.28812 0.0757,-0.12473 0.1094,-0.27581 0.0841,-0.42832 -0.0543,-0.3277 -0.36002,-0.53818 -0.68275,-0.47018 l -2.52871,0.85482 -2.38218,-1.28692 2.43963,-1.1744 2.48609,0.97181 c 0.31925,0.083 0.63442,-0.11301 0.70394,-0.43783 0.0696,-0.32481 -0.13291,-0.65535 -0.45212,-0.73833 l -1.73789,-0.34384 1.98049,-1.08566 c 0.28381,-0.15558 0.38268,-0.52241 0.2208,-0.81935 -0.16189,-0.29694 -0.52315,-0.4115 -0.80696,-0.25595 l -1.98052,1.08567 0.64957,-1.65261 c 0.10266,-0.31426 -0.0655,-0.66356 -0.37572,-0.78022 -0.31018,-0.11664 -0.64484,0.0436 -0.74751,0.35786 l -0.52633,2.62312 -2.15453,1.18105 0.0574,-2.46126 2.08266,-1.67303 c 0.23131,-0.23572 0.21966,-0.60739 -0.0261,-0.83013 -0.24576,-0.2228 -0.6325,-0.2122 -0.86382,0.0235 l -1.16612,1.33726 0.0528,-2.2625 c 0.008,-0.32424 -0.25981,-0.59344 -0.59722,-0.60131 -0.33741,-0.008 -0.61705,0.24857 -0.62462,0.5728 l -0.0528,2.26251 -1.10249,-1.39019 c -0.22007,-0.24625 -0.6059,-0.27481 -0.8617795,-0.0637 -0.25585,0.21103 -0.28482,0.58175 -0.0648,0.82801 l 2.0023695,1.76834 -0.0574,2.46131 -2.0970995,-1.28024 -0.40344,-2.64484 c -0.0879,-0.31871 -0.41476,-0.49438 -0.73003,-0.39234 -0.31533,0.10205 -0.49959,0.44315 -0.4117,0.76186 l 0.5718,1.6811 -1.92771,-1.17684 c -0.27624,-0.16865 -0.64249,-0.071 -0.81801,0.21803 -0.17553,0.28907 -0.0939,0.66011 0.18234,0.82876 l 1.92774,1.17684 -1.75207,0.26245 c -0.32273,0.068 -0.54035,0.38874 -0.48605,0.71644 0.0543,0.32768 0.36001,0.53816 0.68278,0.47015 l 2.52867,-0.85482 2.3821795,1.28686 -2.4396295,1.1744 -2.48609,-0.97181 c -0.31924,-0.083 -0.63439,0.11302 -0.70396,0.4378 -0.0695,0.32475 0.1329,0.65535 0.45211,0.73833 l 1.73792,0.34387 -1.98052,1.08566 c -0.28375,0.15559 -0.38261,0.52242 -0.22073,0.81935 0.16188,0.29694 0.52315,0.41153 0.80696,0.25595 l 1.98052,-1.08566 -0.64957,1.65257 c -0.0549,0.16801 -0.0324,0.34595 0.0478,0.49308 0.0698,0.12812 0.18349,0.23288 0.32787,0.28715 0.3102,0.11663 0.64486,-0.0436 0.74753,-0.35787 l 0.52634,-2.62315 2.1545195,-1.18105 -0.0574,2.46132 -2.0826495,1.67304 c -0.23135,0.23572 -0.21967,0.60736 0.0261,0.83012 0.24573,0.22271 0.6324995,0.21221 0.8638095,-0.0235 l 1.16612,-1.33726 -0.0528,2.26254 c -0.008,0.32423 0.25982,0.59344 0.59723,0.60131 0.33741,0.008 0.61705,-0.24857 0.62461,-0.5728 l 0.0528,-2.26254 1.1025,1.39019 c 0.11766,0.13164 0.28259,0.20104 0.44978,0.20494 0.14559,0.003 0.2929,-0.0429 0.41199,-0.14116 0.25588,-0.21107 0.28485,-0.58176 0.0648,-0.82801 l -2.0024,-1.76834 0.0574,-2.46132 2.09711,1.28024 0.40344,2.64484 c 0.0879,0.31871 0.41472,0.49438 0.73,0.39234 0.31524,-0.10208 0.49959,-0.44318 0.41166,-0.76186 l -0.57179,-1.6811 1.92774,1.17685 c 0.27624,0.16864 0.64248,0.071 0.81801,-0.21804 0.17559,-0.28904 0.094,-0.66008 -0.18231,-0.8287 z"
       id="path951-2-8"
       style="fill:#f4f4f4;fill-opacity:1;stroke-width:0.02936075" />
    <path
       inkscape:connector-curvature="0"
       d="m 6.9684075,190.05077 -1.92774,-1.17685 1.75203,-0.26242 c 0.17254,-0.0364 0.31495,-0.14487 0.40197,-0.28812 0.0757,-0.12473 0.1094,-0.27581 0.0841,-0.42832 -0.0543,-0.3277 -0.36002,-0.53818 -0.68275,-0.47018 l -2.52871,0.85482 -2.38218,-1.28692 2.43963,-1.1744 2.48609,0.97181 c 0.31925,0.083 0.63442,-0.11301 0.70394,-0.43783 0.0696,-0.32481 -0.13291,-0.65535 -0.45212,-0.73833 l -1.73789,-0.34384 1.98049,-1.08566 c 0.28381,-0.15558 0.38268,-0.52241 0.2208,-0.81935 -0.16189,-0.29694 -0.52315,-0.4115 -0.80696,-0.25595 l -1.98052,1.08567 0.64957,-1.65261 c 0.10266,-0.31426 -0.0655,-0.66356 -0.37572,-0.78022 -0.31018,-0.11664 -0.64484,0.0436 -0.74751,0.35786 l -0.52633,2.62312 -2.15453,1.18105 0.0574,-2.46126 2.08266,-1.67303 c 0.23131,-0.23572 0.21966,-0.60739 -0.0261,-0.83013 -0.24576,-0.2228 -0.6325,-0.2122 -0.86382,0.0235 l -1.16612,1.33726 0.0528,-2.2625 c 0.008,-0.32424 -0.25981,-0.59344 -0.59722003,-0.60131 -0.33741,-0.008 -0.61705,0.24857 -0.62462,0.5728 l -0.0528,2.26251 -1.10249,-1.39019 c -0.22006997,-0.24625 -0.60589997,-0.27481 -0.86177997,-0.0637 -0.25585,0.21103 -0.28482,0.58175 -0.0648,0.82801 l 2.00236997,1.76834 -0.0574,2.46131 -2.09709997,-1.28024 -0.40344,-2.64484 c -0.0879,-0.31871 -0.41476,-0.49438 -0.73003,-0.39234 -0.31533,0.10205 -0.49959,0.44315 -0.4117,0.76186 l 0.5718,1.6811 -1.92771,-1.17684 c -0.27624,-0.16865 -0.64249,-0.071 -0.81801,0.21803 -0.17553,0.28907 -0.0939,0.66011 0.18234,0.82876 l 1.92774,1.17684 -1.75207,0.26245 c -0.32273,0.068 -0.54035,0.38874 -0.48605,0.71644 0.0543,0.32768 0.36001,0.53816 0.68278,0.47015 l 2.52867,-0.85482 2.38217997,1.28686 -2.43962997,1.1744 -2.48609,-0.97181 c -0.31924,-0.083 -0.63439,0.11302 -0.70396,0.4378 -0.0695,0.32475 0.1329,0.65535 0.45211,0.73833 l 1.73792,0.34387 -1.98052,1.08566 c -0.28375,0.15559 -0.38261,0.52242 -0.22073,0.81935 0.16188,0.29694 0.52315,0.41153 0.80696,0.25595 l 1.98052,-1.08566 -0.64957,1.65257 c -0.0549,0.16801 -0.0324,0.34595 0.0478,0.49308 0.0698,0.12812 0.18349,0.23288 0.32787,0.28715 0.3102,0.11663 0.64486,-0.0436 0.74753,-0.35787 l 0.52634,-2.62315 2.15451997,-1.18105 -0.0574,2.46132 -2.08264997,1.67304 c -0.23135,0.23572 -0.21967,0.60736 0.0261,0.83012 0.24573,0.22271 0.6325,0.21221 0.86381,-0.0235 l 1.16611997,-1.33726 -0.0528,2.26254 c -0.008,0.32423 0.25982,0.59344 0.59723,0.60131 0.33741,0.008 0.61705003,-0.24857 0.62461003,-0.5728 l 0.0528,-2.26254 1.1025,1.39019 c 0.11766,0.13164 0.28259,0.20104 0.44978,0.20494 0.14559,0.003 0.2929,-0.0429 0.41199,-0.14116 0.25588,-0.21107 0.28485,-0.58176 0.0648,-0.82801 l -2.0024,-1.76834 0.0574,-2.46132 2.09711,1.28024 0.40344,2.64484 c 0.0879,0.31871 0.41472,0.49438 0.73,0.39234 0.31524,-0.10208 0.49959,-0.44318 0.41166,-0.76186 l -0.57179,-1.6811 1.92774,1.17685 c 0.27624,0.16864 0.64248,0.071 0.81801,-0.21804 0.17559,-0.28904 0.094,-0.66008 -0.18231,-0.8287 z"
       id="path951-2-3"
       style="fill:#f4f4f4;fill-opacity:1;stroke-width:0.02936075" />
    <path
       inkscape:connector-curvature="0"
       d="m 77.687924,185.56064 -1.927736,-1.17685 1.752027,-0.26242 c 0.172539,-0.0364 0.31495,-0.14487 0.401969,-0.28812 0.0757,-0.12473 0.109401,-0.27581 0.0841,-0.42832 -0.0543,-0.3277 -0.360021,-0.53818 -0.682756,-0.47018 l -2.5287,0.85482 -2.38218,-1.28692 2.43963,-1.1744 2.48608,0.97181 c 0.319256,0.083 0.634425,-0.11301 0.703945,-0.43783 0.0696,-0.32481 -0.13291,-0.65535 -0.45212,-0.73833 l -1.737895,-0.34384 1.980495,-1.08566 c 0.28381,-0.15558 0.38268,-0.52241 0.2208,-0.81935 -0.16189,-0.29694 -0.52315,-0.4115 -0.806955,-0.25595 l -1.98052,1.08567 0.64956,-1.65261 c 0.10267,-0.31426 -0.0655,-0.66356 -0.37572,-0.78022 -0.31018,-0.11664 -0.64483,0.0436 -0.7475,0.35786 l -0.52633,2.62312 -2.15453,1.18105 0.0574,-2.46126 2.08266,-1.67303 c 0.23131,-0.23572 0.21966,-0.60739 -0.0261,-0.83013 -0.24576,-0.2228 -0.6325,-0.2122 -0.86382,0.0235 l -1.16612,1.33726 0.0528,-2.2625 c 0.008,-0.32424 -0.25981,-0.59344 -0.59722,-0.60131 -0.33741,-0.008 -0.61705,0.24857 -0.62462,0.5728 l -0.0528,2.26251 -1.10249,-1.39019 c -0.22007,-0.24625 -0.6059,-0.27481 -0.86178,-0.0637 -0.25585,0.21103 -0.28482,0.58175 -0.0648,0.82801 l 2.00237,1.76834 -0.0574,2.46131 -2.0971,-1.28024 -0.40344,-2.64484 c -0.0879,-0.31871 -0.41476,-0.49438 -0.73003,-0.39234 -0.31533,0.10205 -0.49959,0.44315 -0.4117,0.76186 l 0.5718,1.6811 -1.92771,-1.17684 c -0.27624,-0.16865 -0.64249,-0.071 -0.81801,0.21803 -0.17553,0.28907 -0.0939,0.66011 0.18234,0.82876 l 1.92774,1.17684 -1.75207,0.26245 c -0.32273,0.068 -0.54035,0.38874 -0.48605,0.71644 0.0543,0.32768 0.36001,0.53816 0.68278,0.47015 l 2.52867,-0.85482 2.38218,1.28686 -2.43963,1.1744 -2.48609,-0.97181 c -0.31924,-0.083 -0.63439,0.11302 -0.70396,0.4378 -0.0695,0.32475 0.1329,0.65535 0.45211,0.73833 l 1.73792,0.34387 -1.98052,1.08566 c -0.28375,0.15559 -0.38261,0.52242 -0.22073,0.81935 0.16188,0.29694 0.52315,0.41153 0.80696,0.25595 l 1.98052,-1.08566 -0.64957,1.65257 c -0.0549,0.16801 -0.0324,0.34595 0.0478,0.49308 0.0698,0.12812 0.18349,0.23288 0.32787,0.28715 0.3102,0.11663 0.64486,-0.0436 0.74753,-0.35787 l 0.52634,-2.62315 2.15452,-1.18105 -0.0574,2.46132 -2.08265,1.67304 c -0.23135,0.23572 -0.21967,0.60736 0.0261,0.83012 0.24573,0.22271 0.6325,0.21221 0.86381,-0.0235 l 1.16612,-1.33726 -0.0528,2.26254 c -0.008,0.32423 0.25982,0.59344 0.59723,0.60131 0.33741,0.008 0.61705,-0.24857 0.62461,-0.5728 l 0.0528,-2.26254 1.1025,1.39019 c 0.11766,0.13164 0.28259,0.20104 0.44978,0.20494 0.14559,0.003 0.2929,-0.0429 0.41199,-0.14116 0.25588,-0.21107 0.28485,-0.58176 0.0648,-0.82801 l -2.0024,-1.76834 0.0574,-2.46132 2.09711,1.28024 0.40344,2.64484 c 0.0879,0.31871 0.41472,0.49438 0.73,0.39234 0.31524,-0.10208 0.49959,-0.44318 0.41166,-0.76186 l -0.57179,-1.6811 1.92774,1.17685 c 0.27624,0.16864 0.642476,0.071 0.818006,-0.21804 0.17559,-0.28904 0.094,-0.66008 -0.18231,-0.8287 z"
       id="path951-2-4"
       style="fill:#f4f4f4;fill-opacity:1;stroke-width:0.02936075" />
  </g>
</svg>
