<?xml version="1.0" encoding="UTF-8" standalone="no"?>
<!-- Created with Inkscape (http://www.inkscape.org/) -->

<svg
   xmlns:osb="http://www.openswatchbook.org/uri/2009/osb"
   xmlns:dc="http://purl.org/dc/elements/1.1/"
   xmlns:cc="http://creativecommons.org/ns#"
   xmlns:rdf="http://www.w3.org/1999/02/22-rdf-syntax-ns#"
   xmlns:svg="http://www.w3.org/2000/svg"
   xmlns="http://www.w3.org/2000/svg"
   xmlns:sodipodi="http://sodipodi.sourceforge.net/DTD/sodipodi-0.dtd"
   xmlns:inkscape="http://www.inkscape.org/namespaces/inkscape"
   width="105.83334mm"
   height="211.66667mm"
   viewBox="0 0 105.83334 211.66667"
   version="1.1"
   id="svg8"
   inkscape:version="0.92.4 (5da689c313, 2019-01-14)"
   sodipodi:docname="SV_snow.svg">
  <title
     id="title23">svguy</title>
  <defs
     id="defs2">
    <linearGradient
       id="linearGradient6307"
       osb:paint="solid">
      <stop
         style="stop-color:#030000;stop-opacity:1;"
         offset="0"
         id="stop6305" />
    </linearGradient>
    <linearGradient
       id="linearGradient6224"
       osb:paint="solid">
      <stop
         style="stop-color:#ff0000;stop-opacity:1;"
         offset="0"
         id="stop6222" />
    </linearGradient>
  </defs>
  <sodipodi:namedview
     id="base"
     pagecolor="#ffffff"
     bordercolor="#666666"
     borderopacity="1.0"
     inkscape:pageopacity="0.0"
     inkscape:pageshadow="2"
     inkscape:zoom="0.70710678"
     inkscape:cx="-8.3574943"
     inkscape:cy="389.40276"
     inkscape:document-units="mm"
     inkscape:current-layer="layer2"
     showgrid="false"
     inkscape:window-width="1680"
     inkscape:window-height="997"
     inkscape:window-x="3832"
     inkscape:window-y="14"
     inkscape:window-maximized="1"
     inkscape:snap-nodes="true"
     inkscape:pagecheckerboard="true" />
  <metadata
     id="metadata5">
    <rdf:RDF>
      <cc:Work
         rdf:about="">
        <dc:format>image/svg+xml</dc:format>
        <dc:type
           rdf:resource="http://purl.org/dc/dcmitype/StillImage" />
        <dc:title>svguy</dc:title>
      </cc:Work>
    </rdf:RDF>
  </metadata>
  <g
     inkscape:label="body"
     inkscape:groupmode="layer"
     id="layer1"
     transform="translate(51.633907,-1.3481959)"
     style="opacity:1" />
  <g
     inkscape:groupmode="layer"
     id="layer4"
     inkscape:label="shirt"
     transform="translate(54.657707,1.5863191)" />
  <g
     inkscape:groupmode="layer"
     id="layer3"
     inkscape:label="arms"
     transform="translate(54.657707,1.5863191)" />
  <g
     inkscape:groupmode="layer"
     id="layer2"
     inkscape:label="face"
     transform="translate(54.657707,1.5863191)">
    <path
       inkscape:connector-curvature="0"
       style="opacity:1;fill:#222222;fill-opacity:1;stroke-width:0.13710259"
       d="m -34.148811,10.85958 c 1.273068,-0.0031 2.526434,0.07683 3.361339,0.240495 4.274449,0.837932 7.70391,2.656436 10.575915,5.60832 2.515816,2.585789 3.989132,5.326249 4.85628,9.032846 0.402406,1.720094 0.438256,5.522571 0.07045,7.4759 -1.462283,7.765752 -7.740911,13.789638 -15.6573,15.022137 -1.658465,0.258212 -4.770911,0.266886 -6.271254,0.01755 -4.110022,-0.683081 -7.794859,-2.638552 -10.737051,-5.697981 -2.484124,-2.583097 -4.313901,-6.176284 -4.96478,-9.749753 -0.490823,-2.694686 -0.231231,-6.344698 0.6421,-9.028263 2.2364,-6.871965 7.39323,-11.331252 14.645153,-12.664198 0.913312,-0.167871 2.206083,-0.253973 3.479152,-0.257034 z"
       id="path4663-7" />
    <path
       inkscape:connector-curvature="0"
       style="opacity:1;fill:#222222;fill-opacity:1;stroke-width:0.13710259"
       d="m -8.8570028,-1.121976 c 1.273068,-0.0031 2.526434,0.07683 3.361338,0.24049502 4.27445,0.837932 7.703911,2.65643598 10.575916,5.60831998 2.5158152,2.585789 3.9891319,5.32625 4.8562794,9.032847 0.4024064,1.720093 0.4382564,5.52257 0.070446,7.4759 -1.4622836,7.765752 -7.7409118,13.789638 -15.6573008,15.022136 -1.65847,0.258212 -4.7709102,0.266886 -6.2712592,0.01755 -4.110022,-0.68308 -7.794853,-2.638551 -10.737051,-5.697981 -2.484118,-2.583096 -4.313895,-6.176283 -4.96478,-9.749752 -0.490818,-2.694686 -0.231226,-6.344699 0.642106,-9.028263 2.2364,-6.871965 7.393224,-11.33125298 14.645153,-12.66419898 0.913306,-0.16787102 2.206083,-0.25397202 3.4791522,-0.25703302 z"
       id="path4663-7-4" />
    <path
       inkscape:connector-curvature="0"
       style="opacity:1;fill:#222222;fill-opacity:1;stroke-width:0.13710259"
       d="m -4.7672638,9.68339 c 1.273068,-0.0031 2.526434,0.07683 3.361339,0.240495 4.2744492,0.837932 7.7039103,2.656436 10.5759152,5.60832 2.5158146,2.585788 3.9891256,5.326249 4.8562766,9.032846 0.402407,1.720093 0.438256,5.52257 0.07045,7.4759 -1.462281,7.765752 -7.7409091,13.789639 -15.6572978,15.022137 -1.65847,0.258212 -4.770911,0.266886 -6.271259,0.01755 -4.1100232,-0.683081 -7.7948542,-2.638553 -10.7370522,-5.697982 -2.484118,-2.583096 -4.313895,-6.176284 -4.964779,-9.749753 -0.490818,-2.694686 -0.231226,-6.344699 0.642106,-9.028263 2.236399,-6.871965 7.393223,-11.331252 14.6451522,-12.664198 0.913306,-0.167871 2.206078,-0.253972 3.479152,-0.257033 z"
       id="path4663-7-5" />
    <path
       inkscape:connector-curvature="0"
       style="opacity:1;fill:#222222;fill-opacity:1;stroke-width:0.13710259"
       d="m 18.049172,3.327292 c 1.27307,-0.0031 2.526436,0.07683 3.361338,0.240495 4.274451,0.837932 7.703911,2.656436 10.575919,5.60832 2.515814,2.585789 3.989128,5.32625 4.856276,9.032847 0.402406,1.720093 0.438256,5.52257 0.07045,7.475899 -1.46228,7.765753 -7.74091,13.789639 -15.657297,15.022137 -1.658473,0.258212 -4.770916,0.266886 -6.271262,0.01755 C 10.874573,40.041459 7.1897427,38.085988 4.2475445,35.026559 1.7634262,32.443462 -0.06635081,28.850275 -0.71723481,25.276805 -1.2080528,22.58212 -0.94846681,18.932107 -0.07512881,16.248543 2.1612702,9.376578 7.3180948,4.91729 14.57002,3.584345 15.48333,3.416473 16.776102,3.330372 18.049172,3.327311 Z"
       id="path4663-7-2" />
    <path
       inkscape:connector-curvature="0"
       style="opacity:1;fill:#222222;fill-opacity:1;stroke-width:0.13710259"
       d="m 31.609885,13.073308 c 1.27307,-0.0031 2.526436,0.07683 3.36134,0.240496 4.274452,0.837931 7.703913,2.656436 10.575918,5.60832 2.515815,2.585788 3.989126,5.326249 4.856279,9.032846 0.402406,1.720093 0.438256,5.52257 0.07045,7.4759 -1.462287,7.765752 -7.740915,13.789639 -15.657305,15.022137 -1.65847,0.258212 -4.770912,0.266886 -6.271258,0.01755 -4.110024,-0.68308 -7.794855,-2.638551 -10.737051,-5.697981 -2.484121,-2.583097 -4.313897,-6.176284 -4.964782,-9.749754 -0.490817,-2.694685 -0.231225,-6.344698 0.642106,-9.028262 2.236399,-6.871965 7.393226,-11.331253 14.645151,-12.664198 0.91331,-0.167872 2.206082,-0.253973 3.479152,-0.257034 z"
       id="path4663-7-59" />
    <path
       inkscape:connector-curvature="0"
       style="opacity:1;fill:#f4f4f4;fill-opacity:1;stroke-width:0.12588161"
       d="m -34.148811,11.458801 c 1.168877,-0.0028 2.319663,0.07054 3.086232,0.220813 3.924616,0.769351 7.073396,2.439023 9.71035,5.149314 2.309906,2.374159 3.662643,4.89033 4.45882,8.293565 0.369473,1.579315 0.402384,5.070584 0.06468,6.864044 -1.3426,7.130176 -7.107366,12.661044 -14.375845,13.792673 -1.522731,0.23708 -4.380441,0.245047 -5.757994,0.01614 -3.773645,-0.627178 -7.156895,-2.42261 -9.858295,-5.231644 -2.28081,-2.371687 -3.960829,-5.670794 -4.558445,-8.951798 -0.450647,-2.474142 -0.212299,-5.825424 0.589556,-8.289356 2.053363,-6.309538 6.788136,-10.403862 13.44654,-11.627715 0.838557,-0.154131 2.025526,-0.233186 3.194404,-0.235996 z"
       id="path4663-7-45" />
    <path
       inkscape:connector-curvature="0"
       style="opacity:1;fill:#f4f4f4;fill-opacity:1;stroke-width:0.12588161"
       d="m 31.609885,15.170737 c 1.168877,-0.0028 2.319663,0.07054 3.086238,0.220812 3.924608,0.769353 7.073388,2.439024 9.710341,5.149315 2.309913,2.374158 3.662643,4.89033 4.458821,8.293565 0.369473,1.579314 0.402389,5.070583 0.06468,6.864045 -1.342598,7.130174 -7.107363,12.661043 -14.375845,13.792669 -1.522732,0.23708 -4.380442,0.245043 -5.757995,0.01611 -3.773645,-0.627173 -7.156895,-2.422603 -9.85829,-5.231638 -2.280809,-2.371686 -3.960834,-5.670793 -4.558449,-8.951797 -0.450646,-2.474142 -0.2123,-5.825424 0.589555,-8.289355 2.053364,-6.309539 6.788137,-10.403862 13.44654,-11.627715 0.838563,-0.154132 2.025527,-0.233186 3.194404,-0.235997 z"
       id="path4663-7-4-2" />
    <path
       inkscape:connector-curvature="0"
       style="opacity:1;fill:#f4f4f4;fill-opacity:1;stroke-width:0.12588161"
       d="m -8.8570028,0.67582402 c 1.168877,-0.0028 2.319663,0.07054 3.086237,0.220812 3.924611,0.76935198 7.073391,2.43902298 9.7103503,5.14931398 2.3099065,2.374158 3.6626371,4.890329 4.4588148,8.293565 0.3694725,1.579316 0.4023889,5.070583 0.064682,6.864045 -1.3426003,7.130175 -7.1073651,12.661045 -14.3758501,13.792674 -1.522732,0.237074 -4.3804412,0.245041 -5.7579942,0.01614 -3.773645,-0.627198 -7.156895,-2.422626 -9.85829,-5.231661 -2.280809,-2.371687 -3.960834,-5.670794 -4.558444,-8.951799 -0.450647,-2.474142 -0.212305,-5.825425 0.589556,-8.289356 2.053363,-6.309538 6.788136,-10.403861 13.446534,-11.62771398 0.838563,-0.154132 2.025526,-0.233186 3.1944042,-0.235996 z"
       id="path4663-7-5-1" />
    <path
       inkscape:connector-curvature="0"
       style="opacity:1;fill:#f4f4f4;fill-opacity:1;stroke-width:0.12588161"
       d="m -4.7672638,11.780819 c 1.168877,-0.0028 2.319663,0.07054 3.086238,0.220812 3.92461,0.769352 7.0733903,2.439023 9.7103438,5.149314 2.309912,2.374159 3.662642,4.89033 4.45882,8.293565 0.369473,1.579315 0.402389,5.070584 0.06468,6.864046 -1.342603,7.130174 -7.1073627,12.661043 -14.3758468,13.792669 -1.522726,0.237079 -4.380442,0.245043 -5.757995,0.01611 -3.7736452,-0.627175 -7.1568962,-2.422603 -9.8582892,-5.231636 -2.28081,-2.371687 -3.960835,-5.670795 -4.558445,-8.951798 -0.450647,-2.474144 -0.212305,-5.825425 0.58955,-8.289358 2.053369,-6.309538 6.788142,-10.403861 13.4465402,-11.627713 0.838563,-0.154132 2.025532,-0.233187 3.194404,-0.235998 z"
       id="path4663-7-2-2" />
    <path
       inkscape:connector-curvature="0"
       style="opacity:1;fill:#f4f4f4;fill-opacity:1;stroke-width:0.12588161"
       d="m 18.049172,3.926574 c 1.168883,-0.0028 2.319669,0.07054 3.086232,0.220812 3.924622,0.769351 7.073402,2.439024 9.71035,5.149314 2.309912,2.374158 3.662643,4.89033 4.458826,8.293566 0.369473,1.579314 0.402389,5.070582 0.06468,6.864044 -1.342606,7.130175 -7.107371,12.661044 -14.37585,13.792675 -1.522737,0.23708 -4.380447,0.245041 -5.758,0.01614 C 11.461774,37.635925 8.0785238,35.840499 5.3771238,33.031462 3.096314,30.659777 1.4162892,27.360669 0.81867919,24.079664 0.36802619,21.605521 0.60637419,18.254239 1.4082352,15.790308 3.4615929,9.48077 8.1963659,5.386446 14.854766,4.162594 15.693329,4.008461 16.880293,3.929407 18.04917,3.926596 Z"
       id="path4663-7-59-7" />
    <path
       inkscape:connector-curvature="0"
       d="m -30.63646,102.53384 -1.92774,-1.17684 1.75204,-0.26242 c 0.17253,-0.0364 0.31495,-0.14487 0.40196,-0.28813 0.0757,-0.12472 0.1094,-0.2758 0.0841,-0.42831 -0.0543,-0.3277 -0.36001,-0.538186 -0.68275,-0.470179 l -2.52871,0.854819 -2.38217,-1.286924 2.43962,-1.174397 2.4861,0.971808 c 0.31924,0.08298 0.63442,-0.113012 0.70393,-0.437824 0.0696,-0.32481 -0.1329,-0.655351 -0.45211,-0.738334 l -1.7379,-0.343836 1.9805,-1.085667 c 0.28381,-0.155582 0.38267,-0.522411 0.22079,-0.819346 -0.16189,-0.296937 -0.52315,-0.411503 -0.80696,-0.25595 l -1.98052,1.085666 0.64957,-1.652608 c 0.10266,-0.314259 -0.0655,-0.663559 -0.37572,-0.780224 -0.31017,-0.116634 -0.64484,0.04361 -0.7475,0.357865 l -0.52634,2.623124 -2.15453,1.181049 0.0574,-2.461259 2.08266,-1.673036 c 0.23132,-0.235721 0.21966,-0.607391 -0.0261,-0.83013 -0.24576,-0.222797 -0.6325,-0.212201 -0.86381,0.02349 l -1.16613,1.337267 0.0528,-2.262511 c 0.008,-0.324231 -0.25981,-0.593437 -0.59722,-0.601309 -0.33741,-0.0079 -0.61705,0.248572 -0.62461,0.572803 l -0.0528,2.262511 -1.1025,-1.390193 c -0.22007,-0.246251 -0.60589,-0.274812 -0.86177,-0.06374 -0.25585,0.211036 -0.28482,0.581757 -0.0648,0.828009 l 2.00237,1.76834 -0.0574,2.461317 -2.09711,-1.280239 -0.40344,-2.644845 c -0.0879,-0.318705 -0.41475,-0.494378 -0.73003,-0.392335 -0.31533,0.102042 -0.49959,0.443149 -0.41169,0.761853 l 0.57179,1.681103 -1.9277,-1.176844 c -0.27625,-0.168649 -0.64249,-0.07103 -0.81802,0.218039 -0.17552,0.289063 -0.0939,0.660103 0.18234,0.828752 l 1.92774,1.176844 -1.75206,0.262446 c -0.32274,0.06801 -0.54035,0.388747 -0.48606,0.716447 0.0543,0.327672 0.36002,0.538153 0.68278,0.470146 l 2.52868,-0.854815 2.38218,1.28686 -2.43963,1.174397 -2.48609,-0.971807 c -0.31925,-0.08298 -0.63439,0.113012 -0.70397,0.437797 -0.0695,0.32475 0.13291,0.65535 0.45212,0.73833 l 1.73792,0.34387 -1.98052,1.08566 c -0.28375,0.15559 -0.38262,0.52242 -0.22073,0.81935 0.16188,0.29694 0.52314,0.41153 0.80695,0.25595 l 1.98052,-1.08567 -0.64957,1.65258 c -0.0549,0.168 -0.0324,0.34595 0.0478,0.49308 0.0698,0.12812 0.1835,0.23288 0.32787,0.28715 0.3102,0.11663 0.64487,-0.0436 0.74753,-0.35787 l 0.52634,-2.62315 2.15453,-1.18105 -0.0574,2.46132 -2.08266,1.67303 c -0.23134,0.23572 -0.21966,0.60737 0.0261,0.83013 0.24573,0.22271 0.6325,0.21221 0.86382,-0.0235 l 1.16612,-1.33726 -0.0528,2.26254 c -0.008,0.32423 0.25981,0.59344 0.59722,0.60131 0.33741,0.008 0.61705,-0.24857 0.62462,-0.5728 l 0.0528,-2.26254 1.10249,1.39019 c 0.11766,0.13164 0.28259,0.20104 0.44979,0.20494 0.14559,0.003 0.2929,-0.0429 0.41199,-0.14116 0.25588,-0.21107 0.28485,-0.58176 0.0648,-0.82801 l -2.0024,-1.76834 0.0574,-2.46132 2.0971,1.28024 0.40344,2.64484 c 0.0879,0.31871 0.41473,0.49438 0.73,0.39234 0.31525,-0.10208 0.49959,-0.44318 0.41167,-0.76186 l -0.5718,-1.6811 1.92774,1.17684 c 0.27624,0.16865 0.64249,0.071 0.81801,-0.21803 0.17559,-0.28904 0.094,-0.66008 -0.18231,-0.8287 z"
       id="path951"
       style="fill:#f4f4f4;fill-opacity:1;stroke-width:0.02936075" />
    <path
       inkscape:connector-curvature="0"
       d="m -19.598231,72.184944 -1.92774,-1.176846 1.75203,-0.262416 c 0.17254,-0.03636 0.31496,-0.14487 0.40197,-0.288128 0.0757,-0.124723 0.1094,-0.275804 0.0841,-0.428319 -0.0543,-0.3277 -0.36001,-0.538181 -0.68275,-0.470174 l -2.52871,0.854814 -2.38218,-1.286919 2.43963,-1.174397 2.4861,0.971808 c 0.31924,0.08298 0.63441,-0.113012 0.70393,-0.437824 0.0696,-0.32481 -0.1329,-0.655351 -0.45212,-0.738334 l -1.73789,-0.343836 1.98049,-1.085667 c 0.28381,-0.155582 0.38268,-0.522411 0.2208,-0.819346 -0.16189,-0.296937 -0.52315,-0.411503 -0.80696,-0.25595 l -1.98052,1.085666 0.64957,-1.652608 c 0.10266,-0.314259 -0.0655,-0.663559 -0.37572,-0.780224 -0.31017,-0.116634 -0.64484,0.04361 -0.7475,0.357865 l -0.52634,2.623124 -2.15453,1.181049 0.0574,-2.461259 2.08266,-1.673036 c 0.23131,-0.235721 0.21966,-0.607391 -0.0261,-0.83013 -0.24576,-0.222797 -0.6325,-0.212201 -0.86381,0.02349 l -1.16613,1.337267 0.0528,-2.262511 c 0.008,-0.324231 -0.25981,-0.593437 -0.59722,-0.601309 -0.33741,-0.0079 -0.61705,0.248572 -0.62461,0.572803 l -0.0528,2.262511 -1.1025,-1.390193 c -0.22007,-0.246251 -0.60589,-0.274812 -0.86177,-0.06374 -0.25585,0.211036 -0.28483,0.581757 -0.0648,0.828009 l 2.00237,1.76834 -0.0574,2.461317 -2.09711,-1.280239 -0.40344,-2.644845 c -0.0879,-0.318705 -0.41475,-0.494378 -0.73003,-0.392335 -0.31533,0.102042 -0.49959,0.443149 -0.41169,0.761853 l 0.57179,1.681103 -1.92771,-1.176844 c -0.27624,-0.168649 -0.64248,-0.07103 -0.81801,0.218039 -0.17553,0.289063 -0.0939,0.660103 0.18234,0.828752 l 1.92774,1.176844 -1.75207,0.262446 c -0.32273,0.06801 -0.54034,0.388747 -0.48605,0.716447 0.0543,0.327672 0.36002,0.538153 0.68278,0.470146 l 2.52868,-0.854815 2.38218,1.28686 -2.43963,1.174398 -2.4861,-0.971808 c -0.31924,-0.08298 -0.63438,0.113012 -0.70396,0.437793 -0.0695,0.324754 0.13291,0.655351 0.45212,0.738335 l 1.73792,0.343866 -1.98052,1.085666 c -0.28375,0.155583 -0.38262,0.522412 -0.22074,0.819348 0.16189,0.296936 0.52315,0.411532 0.80696,0.25595 l 1.98052,-1.085667 -0.64957,1.652579 c -0.0549,0.168001 -0.0324,0.345942 0.0478,0.493072 0.0698,0.128121 0.1835,0.232888 0.32787,0.287151 0.3102,0.116635 0.64487,-0.0436 0.74753,-0.357864 l 0.52634,-2.623153 2.15453,-1.181049 -0.0574,2.461317 -2.08266,1.673037 c -0.23134,0.23572 -0.21966,0.607361 0.0261,0.830129 0.24573,0.222708 0.6325,0.212202 0.86382,-0.02352 l 1.16612,-1.337264 -0.0528,2.262541 c -0.008,0.324231 0.25981,0.593438 0.59722,0.601309 0.33741,0.0079 0.61705,-0.248573 0.62462,-0.572803 l 0.0528,-2.26254 1.10249,1.390191 c 0.11766,0.131646 0.28259,0.201044 0.44979,0.204945 0.14559,0.0034 0.29289,-0.04292 0.41199,-0.141167 0.25588,-0.211066 0.28485,-0.581758 0.0648,-0.82801 l -2.0024,-1.76834 0.0574,-2.461317 2.0971,1.280238 0.40344,2.644846 c 0.0879,0.318705 0.41473,0.494377 0.73,0.392334 0.31525,-0.102074 0.49959,-0.443179 0.41167,-0.761855 l -0.5718,-1.681102 1.92774,1.176845 c 0.27624,0.168648 0.64249,0.07103 0.81801,-0.218039 0.17559,-0.289033 0.094,-0.660073 -0.18231,-0.828692 z"
       id="path951-1"
       style="fill:#f4f4f4;fill-opacity:1;stroke-width:0.02936075" />
    <path
       inkscape:connector-curvature="0"
       d="m 5.0974698,109.2285 -1.92774,-1.17684 1.75204,-0.26242 c 0.17253,-0.0364 0.31495,-0.14487 0.40196,-0.28813 0.0757,-0.12472 0.1094,-0.2758 0.0841,-0.42832 -0.0543,-0.3277 -0.36001,-0.53818 -0.68275,-0.47017 l -2.5287,0.85482 -2.38217997,-1.28692 2.43962997,-1.1744 2.48609,0.97181 c 0.31924,0.083 0.63442,-0.11302 0.70393,-0.43783 0.0696,-0.32481 -0.1329,-0.65535 -0.45211,-0.73833 l -1.73789,-0.34384 1.98049,-1.08566 c 0.28381,-0.15559 0.38267,-0.52242 0.22079,-0.81935 -0.16188,-0.29694 -0.52315,-0.4115 -0.80696,-0.25595 l -1.98052,1.08567 0.64957,-1.65261 c 0.10266,-0.31426 -0.0655,-0.66356 -0.37572,-0.78023 -0.31017,-0.11663 -0.64484,0.0436 -0.7475,0.35787 l -0.52634,2.62312 -2.15451997,1.18105 0.0574,-2.46126 2.08264997,-1.67303 c 0.23132,-0.23572 0.21967,-0.60739 -0.0261,-0.83013 -0.24576,-0.222804 -0.63249997,-0.212204 -0.86380997,0.0235 l -1.16612,1.33726 0.0528,-2.262514 c 0.008,-0.32423 -0.25982,-0.59343 -0.59723,-0.60131 -0.33741003,-0.008 -0.61705003,0.24858 -0.62461003,0.57281 l -0.0528,2.262514 -1.10249,-1.3902 c -0.22007,-0.246254 -0.6059,-0.274814 -0.86178,-0.0637 -0.25585,0.21104 -0.28482,0.58176 -0.0648,0.82801 l 2.00237,1.76834 -0.0574,2.46132 -2.09711,-1.28024 -0.40344,-2.64484 c -0.0879,-0.31871 -0.41475,-0.49438 -0.73002,-0.39234 -0.31534,0.10204 -0.4996,0.44315 -0.4117,0.76185 l 0.5718,1.68111 -1.92771,-1.17685 c -0.27625,-0.16865 -0.64249,-0.071 -0.81802,0.21804 -0.17552,0.28907 -0.0939,0.66011 0.18235,0.82875 l 1.92773,1.17685 -1.75206,0.26244 c -0.32274,0.068 -0.54035,0.38875 -0.48606,0.71645 0.0543,0.32767 0.36002,0.53816 0.68278,0.47015 l 2.52868,-0.85482 2.38218,1.28686 -2.43963,1.1744 -2.48609,-0.97181 c -0.31924,-0.083 -0.63439,0.11302 -0.70396,0.4378 -0.0695,0.32475 0.1329,0.65535 0.45211,0.73833 l 1.73792,0.34387 -1.98052,1.08566 c -0.28375,0.15559 -0.38262,0.52242 -0.22073,0.81935 0.16188,0.29694 0.52315,0.41153 0.80695,0.25595 l 1.98053,-1.08567 -0.64958,1.65258 c -0.0549,0.168 -0.0324,0.34595 0.0478,0.49308 0.0698,0.12812 0.1835,0.23288 0.32787,0.28715 0.31021,0.11663 0.64487,-0.0436 0.74753,-0.35787 l 0.52634,-2.62315 2.15453,-1.18105 -0.0574,2.46132 -2.08266,1.67303 c -0.23134,0.23572 -0.21966,0.60737 0.0261,0.83013 0.24573,0.22271 0.6325,0.21221 0.86382,-0.0235 l 1.16612,-1.33726 -0.0528,2.26254 c -0.008,0.32423 0.25981,0.59344 0.59722,0.60131 0.33741003,0.008 0.61706003,-0.24857 0.62462003,-0.5728 l 0.0528,-2.26254 1.10249,1.39019 c 0.11767,0.13164 0.2826,0.20104 0.44979,0.20494 0.14558997,0.003 0.29289997,-0.0429 0.41198997,-0.14116 0.25588,-0.21107 0.28485,-0.58176 0.0648,-0.82801 l -2.00239997,-1.76834 0.0574,-2.46132 2.09710997,1.28024 0.40343,2.64484 c 0.0879,0.31871 0.41473,0.49438 0.73,0.39234 0.31525,-0.10208 0.4996,-0.44318 0.41167,-0.76186 l -0.5718,-1.6811 1.92774,1.17684 c 0.27625,0.16865 0.64249,0.071 0.81802,-0.21803 0.17558,-0.28904 0.094,-0.66008 -0.18232,-0.8287 z"
       id="path951-5"
       style="fill:#f4f4f4;fill-opacity:1;stroke-width:0.02936075" />
    <path
       inkscape:connector-curvature="0"
       d="m 38.658593,100.85376 -1.92774,-1.176852 1.75204,-0.26242 c 0.17253,-0.0364 0.31495,-0.14487 0.40196,-0.28812 0.0757,-0.12473 0.1094,-0.27581 0.0841,-0.42832 -0.0543,-0.3277 -0.36001,-0.53818 -0.68275,-0.47018 l -2.52871,0.85482 -2.38218,-1.28692 2.43963,-1.1744 2.4861,0.97181 c 0.31924,0.083 0.63441,-0.11301 0.70393,-0.43783 0.0696,-0.32481 -0.1329,-0.65535 -0.45212,-0.73833 l -1.73789,-0.34384 1.9805,-1.08566 c 0.2838,-0.15558 0.38267,-0.52241 0.22079,-0.81935 -0.16189,-0.29694 -0.52315,-0.4115 -0.80696,-0.25595 l -1.98052,1.08567 0.64957,-1.65261 c 0.10266,-0.314259 -0.0655,-0.663559 -0.37572,-0.780224 -0.31017,-0.116634 -0.64484,0.04361 -0.7475,0.357865 l -0.52634,2.623119 -2.15453,1.18105 0.0574,-2.46126 2.08266,-1.673031 c 0.23131,-0.235721 0.21966,-0.607391 -0.0261,-0.83013 -0.24576,-0.222797 -0.6325,-0.212201 -0.86381,0.02349 l -1.16613,1.337266 0.0528,-2.26251 c 0.008,-0.324231 -0.25981,-0.593437 -0.59722,-0.601309 -0.33741,-0.0079 -0.61705,0.248572 -0.62461,0.572803 l -0.0528,2.262511 -1.10249,-1.390193 c -0.22008,-0.246251 -0.6059,-0.274812 -0.86178,-0.06374 -0.25585,0.211036 -0.28482,0.581757 -0.0648,0.828009 l 2.00237,1.768344 -0.0574,2.46131 -2.09711,-1.28024 -0.40344,-2.644841 c -0.0879,-0.318705 -0.41475,-0.494378 -0.73003,-0.392335 -0.31533,0.102042 -0.49959,0.443149 -0.41169,0.761853 l 0.57179,1.681103 -1.92771,-1.17684 c -0.27624,-0.16865 -0.64248,-0.071 -0.81801,0.21803 -0.17553,0.28907 -0.0939,0.66011 0.18234,0.82876 l 1.92774,1.17684 -1.75207,0.26245 c -0.32273,0.068 -0.54034,0.38874 -0.48605,0.71644 0.0543,0.32768 0.36002,0.53816 0.68278,0.47015 l 2.52868,-0.85482 2.38218,1.28686 -2.43963,1.1744 -2.4861,-0.97181 c -0.31924,-0.083 -0.63438,0.11302 -0.70396,0.4378 -0.0695,0.32475 0.13291,0.65535 0.45212,0.73833 l 1.73792,0.34387 -1.98052,1.085662 c -0.28375,0.15559 -0.38262,0.52242 -0.22074,0.81935 0.16189,0.29694 0.52315,0.41153 0.80696,0.25595 l 1.98052,-1.08566 -0.64957,1.65257 c -0.0549,0.16801 -0.0324,0.34595 0.0478,0.49308 0.0698,0.12812 0.1835,0.23288 0.32787,0.28715 0.3102,0.11663 0.64487,-0.0436 0.74753,-0.35787 l 0.52634,-2.62315 2.15453,-1.181052 -0.0574,2.461322 -2.08266,1.67304 c -0.23134,0.23572 -0.21966,0.60736 0.0261,0.83012 0.24573,0.22271 0.6325,0.21221 0.86381,-0.0235 l 1.16613,-1.33726 -0.0528,2.26254 c -0.008,0.32423 0.25981,0.59344 0.59722,0.60131 0.33741,0.008 0.61705,-0.24858 0.62462,-0.57281 l 0.0528,-2.26253 1.10249,1.39019 c 0.11766,0.13164 0.28259,0.20104 0.44979,0.20494 0.14559,0.003 0.29289,-0.0429 0.41199,-0.14116 0.25588,-0.21107 0.28485,-0.58176 0.0648,-0.82801 l -2.0024,-1.76834 0.0574,-2.461322 2.0971,1.280242 0.40344,2.64484 c 0.0879,0.31871 0.41473,0.49438 0.73,0.39234 0.31525,-0.10208 0.49959,-0.44318 0.41167,-0.76186 l -0.5718,-1.6811 1.92774,1.17685 c 0.27624,0.16864 0.64249,0.071 0.81801,-0.21804 0.17559,-0.28904 0.094,-0.66008 -0.18231,-0.8287 z"
       id="path951-0"
       style="fill:#f4f4f4;fill-opacity:1;stroke-width:0.02936075" />
    <path
       inkscape:connector-curvature="0"
       d="m 17.071141,72.184944 -1.927734,-1.176846 1.752036,-0.262416 c 0.172538,-0.03636 0.314948,-0.14487 0.401968,-0.288128 0.0757,-0.124723 0.1094,-0.275804 0.0841,-0.428319 -0.0543,-0.3277 -0.36002,-0.538181 -0.682748,-0.470174 l -2.528713,0.854814 -2.382178,-1.286919 2.43963,-1.174397 2.486091,0.971808 c 0.319238,0.08298 0.634418,-0.113012 0.703938,-0.437824 0.0696,-0.32481 -0.13291,-0.655351 -0.45212,-0.738334 l -1.73789,-0.343836 1.98049,-1.085667 c 0.28381,-0.155582 0.38268,-0.522411 0.22079,-0.819346 -0.16188,-0.296937 -0.523148,-0.411503 -0.806948,-0.25595 l -1.980526,1.085666 0.64957,-1.652608 c 0.102663,-0.314259 -0.06552,-0.663559 -0.37572,-0.780224 -0.310172,-0.116634 -0.644838,0.04361 -0.7475,0.357865 l -0.52634,2.623124 -2.154526,1.181049 0.05742,-2.461259 2.082656,-1.673036 c 0.231315,-0.235721 0.219663,-0.607391 -0.0261,-0.83013 -0.245759,-0.222797 -0.632498,-0.212201 -0.863813,0.02349 l -1.166124,1.337266 0.05279,-2.26251 c 0.0076,-0.324231 -0.25981,-0.593437 -0.597221,-0.601309 -0.33741,-0.0079 -0.617051,0.248572 -0.624614,0.572803 l -0.05279,2.262511 -1.1024922,-1.390193 c -0.220072,-0.246251 -0.605898,-0.274812 -0.861778,-0.06374 -0.25585,0.211036 -0.284822,0.581757 -0.06475,0.828009 l 2.0023692,1.76834 -0.05742,2.461317 -2.0971062,-1.280239 -0.403438,-2.644845 c -0.08793,-0.318705 -0.414754,-0.494378 -0.730029,-0.392335 -0.315334,0.102042 -0.499592,0.443149 -0.411697,0.761853 l 0.571797,1.681103 -1.927709,-1.176844 c -0.276244,-0.168649 -0.642488,-0.07103 -0.818014,0.218039 -0.175526,0.289063 -0.0939,0.660102 0.182342,0.828752 l 1.927738,1.176844 -1.752066,0.262446 c -0.322734,0.06801 -0.540349,0.388747 -0.486055,0.716447 0.05432,0.327672 0.360016,0.538153 0.68278,0.470146 l 2.528678,-0.854815 2.3821799,1.28686 -2.4396299,1.174398 -2.486093,-0.971808 c -0.319242,-0.08298 -0.634389,0.113012 -0.703962,0.437793 -0.06951,0.324754 0.132905,0.655351 0.452116,0.738335 l 1.73792,0.343866 -1.980522,1.085666 c -0.283749,0.155583 -0.382616,0.522412 -0.220732,0.819348 0.161884,0.296936 0.523148,0.411532 0.806956,0.25595 l 1.980522,-1.085667 -0.649571,1.652579 c -0.05487,0.168001 -0.03238,0.345942 0.04782,0.493072 0.06984,0.128121 0.183496,0.232888 0.327869,0.287151 0.310203,0.116635 0.644868,-0.0436 0.747531,-0.357864 l 0.52634,-2.623153 2.1545252,-1.181049 -0.05742,2.461317 -2.0826562,1.673037 c -0.231345,0.23572 -0.219663,0.607361 0.02607,0.830129 0.245731,0.222708 0.632498,0.212202 0.863814,-0.02352 l 1.1661232,-1.337264 -0.05279,2.262541 c -0.0076,0.324231 0.259813,0.593438 0.597223,0.601308 0.337411,0.008 0.617052,-0.248572 0.624615,-0.572802 l 0.05279,-2.26254 1.102493,1.390191 c 0.117663,0.131646 0.282595,0.201044 0.449788,0.204945 0.14559,0.0034 0.292897,-0.04292 0.41199,-0.141167 0.255879,-0.211066 0.28485,-0.581758 0.06478,-0.82801 l -2.002399,-1.76834 0.05742,-2.461317 2.097104,1.280238 0.403439,2.644846 c 0.08789,0.318705 0.414725,0.494377 0.73,0.392334 0.315246,-0.102074 0.499593,-0.443179 0.411667,-0.761855 l -0.571796,-1.681102 1.927738,1.176845 c 0.276246,0.168648 0.642484,0.07103 0.818014,-0.218039 0.17558,-0.289033 0.094,-0.660073 -0.18232,-0.828692 z"
       id="path951-07"
       style="fill:#f4f4f4;fill-opacity:1;stroke-width:0.02936075" />
    <path
       inkscape:connector-curvature="0"
       d="m -37.184568,140.28522 -1.92774,-1.17685 1.752036,-0.26241 c 0.172536,-0.0364 0.314952,-0.14487 0.401966,-0.28813 0.07574,-0.12473 0.109401,-0.27581 0.08412,-0.42832 -0.05432,-0.3277 -0.360014,-0.53818 -0.682749,-0.47017 l -2.52871,0.85481 -2.382177,-1.28692 2.439629,-1.17439 2.486094,0.97181 c 0.319241,0.083 0.634416,-0.11302 0.703933,-0.43783 0.06958,-0.32481 -0.132905,-0.65535 -0.452117,-0.73833 l -1.737891,-0.34384 1.980492,-1.08567 c 0.283809,-0.15558 0.382676,-0.52241 0.220793,-0.81934 -0.161885,-0.29694 -0.523149,-0.4115 -0.806957,-0.25595 l -1.980522,1.08566 0.64957,-1.6526 c 0.102663,-0.31426 -0.06552,-0.66356 -0.37572,-0.78023 -0.310172,-0.11663 -0.644838,0.0436 -0.7475,0.35787 l -0.526339,2.62312 -2.154527,1.18105 0.05742,-2.46126 2.082657,-1.67303 c 0.231314,-0.23573 0.219662,-0.6074 -0.0261,-0.83013 -0.245759,-0.2228 -0.632499,-0.21221 -0.863813,0.0235 l -1.166125,1.33726 0.05279,-2.26251 c 0.0076,-0.32423 -0.25981,-0.59344 -0.597221,-0.60131 -0.337409,-0.008 -0.61705,0.24857 -0.624614,0.57281 l -0.05279,2.26251 -1.102492,-1.3902 c -0.22007,-0.24625 -0.6059,-0.27481 -0.86178,-0.0637 -0.25585,0.21104 -0.28482,0.58176 -0.0647,0.82801 l 2.002372,1.76834 -0.05742,2.46132 -2.097102,-1.28024 -0.40344,-2.64484 c -0.0879,-0.31871 -0.41476,-0.49438 -0.73003,-0.39234 -0.31533,0.10204 -0.49959,0.44315 -0.4117,0.76185 l 0.5718,1.68111 -1.92771,-1.17685 c -0.27624,-0.16865 -0.64249,-0.071 -0.81801,0.21804 -0.17553,0.28906 -0.0939,0.6601 0.18234,0.82875 l 1.92774,1.17685 -1.75207,0.26244 c -0.32273,0.068 -0.54035,0.38875 -0.48605,0.71645 0.0543,0.32767 0.36001,0.53815 0.68278,0.47015 l 2.52867,-0.85482 2.382184,1.28686 -2.439634,1.17439 -2.48609,-0.9718 c -0.31924,-0.083 -0.63439,0.11301 -0.70396,0.43779 -0.0695,0.32475 0.1329,0.65535 0.45211,0.73833 l 1.73792,0.34387 -1.98052,1.08567 c -0.28375,0.15558 -0.38261,0.52241 -0.22073,0.81934 0.16188,0.29694 0.52315,0.41154 0.80696,0.25595 l 1.98052,-1.08566 -0.64957,1.65259 c -0.0549,0.168 -0.0324,0.34594 0.0478,0.49307 0.0698,0.12812 0.18349,0.23289 0.32787,0.28715 0.3102,0.11663 0.64486,-0.0436 0.74753,-0.35786 l 0.52634,-2.62317 2.154523,-1.18105 -0.05742,2.46132 -2.082653,1.67305 c -0.23135,0.23572 -0.21967,0.60736 0.0261,0.83013 0.24573,0.2227 0.6325,0.2122 0.86381,-0.0235 l 1.166124,-1.33727 -0.05279,2.26254 c -0.0076,0.32423 0.259814,0.59344 0.597223,0.60131 0.337411,0.008 0.617052,-0.24857 0.624616,-0.5728 l 0.05279,-2.26254 1.102493,1.39019 c 0.117662,0.13165 0.282594,0.20104 0.449788,0.20495 0.145589,0.003 0.292896,-0.0429 0.411989,-0.14117 0.255879,-0.21107 0.284851,-0.58176 0.06478,-0.82801 l -2.002398,-1.76835 0.05742,-2.46132 2.097103,1.28024 0.40344,2.64486 c 0.08789,0.3187 0.414724,0.49437 0.729999,0.39233 0.315246,-0.10207 0.499593,-0.44318 0.411667,-0.76186 l -0.571796,-1.68111 1.927738,1.17685 c 0.276244,0.16865 0.642488,0.071 0.818014,-0.21804 0.175584,-0.28903 0.09396,-0.66007 -0.182313,-0.82869 z"
       id="path951-3"
       style="fill:#f4f4f4;fill-opacity:1;stroke-width:0.02936075" />
    <path
       inkscape:connector-curvature="0"
       d="m -1.6377151,173.21282 -1.92774,-1.17684 1.75203,-0.26242 c 0.17254,-0.0364 0.31495,-0.14487 0.40197,-0.28813 0.0757,-0.12472 0.1094,-0.2758 0.0841,-0.42832 -0.0543,-0.3277 -0.36002,-0.53818 -0.68275,-0.47017 l -2.52871,0.85481 -2.38218,-1.28692 2.43963,-1.17439 2.48609,0.97181 c 0.31925,0.083 0.63442,-0.11302 0.70394,-0.43783 0.0696,-0.32481 -0.13291,-0.65535 -0.45212,-0.73833 l -1.73789,-0.34384 1.98049,-1.08567 c 0.28381,-0.15558 0.38268,-0.52241 0.22079,-0.81934 -0.16188,-0.29694 -0.52314,-0.4115 -0.80695,-0.25595 l -1.98052,1.08566 0.64957,-1.6526 c 0.10266,-0.31426 -0.0655,-0.66356 -0.37572,-0.78023 -0.31018,-0.11663 -0.64484,0.0436 -0.74751,0.35787 l -0.52633,2.62312 -2.15453,1.18105 0.0574,-2.46126 2.08266,-1.67303 c 0.23131,-0.23573 0.21966,-0.6074 -0.0261,-0.83013 -0.24576,-0.2228 -0.6325,-0.21221 -0.86382,0.0235 l -1.16612,1.33726 0.0528,-2.26251 c 0.008,-0.32423 -0.25981,-0.59344 -0.59722,-0.60131 -0.33741,-0.008 -0.61705,0.24857 -0.62462,0.57281 l -0.0528,2.26251 -1.10249,-1.3902 c -0.22007,-0.24625 -0.6058999,-0.27481 -0.8617799,-0.0637 -0.25585,0.21104 -0.28482,0.58176 -0.0648,0.82801 l 2.0023699,1.76834 -0.0574,2.46132 -2.0970999,-1.28024 -0.40344,-2.64484 c -0.0879,-0.31871 -0.41476,-0.49438 -0.73003,-0.39234 -0.31533,0.10204 -0.499591,0.44315 -0.411701,0.76185 l 0.571801,1.68111 -1.927711,-1.17685 c -0.27624,-0.16865 -0.64249,-0.071 -0.81801,0.21804 -0.17553,0.28906 -0.0939,0.6601 0.18234,0.82875 l 1.92774,1.17685 -1.75207,0.26244 c -0.32273,0.068 -0.54035,0.38875 -0.48605,0.71645 0.0543,0.32767 0.36001,0.53815 0.68278,0.47015 l 2.528671,-0.85482 2.3821799,1.28686 -2.4396299,1.1744 -2.486091,-0.97181 c -0.31924,-0.083 -0.63439,0.11301 -0.70396,0.43779 -0.0695,0.32476 0.1329,0.65536 0.45211,0.73834 l 1.73792,0.34387 -1.98052,1.08566 c -0.28375,0.15558 -0.38261,0.52241 -0.22073,0.81935 0.16188,0.29694 0.52315,0.41153 0.80696,0.25595 l 1.980521,-1.08567 -0.649571,1.65258 c -0.0549,0.168 -0.0324,0.34594 0.0478,0.49307 0.0698,0.12812 0.183491,0.23289 0.327871,0.28715 0.3102,0.11664 0.64486,-0.0436 0.74753,-0.35786 l 0.52634,-2.62315 2.1545199,-1.18105 -0.0574,2.46132 -2.0826499,1.67303 c -0.23135,0.23572 -0.21967,0.60736 0.0261,0.83013 0.24573,0.22271 0.6324999,0.2122 0.8638099,-0.0235 l 1.16612,-1.33726 -0.0528,2.26254 c -0.008,0.32423 0.25982,0.59344 0.59723,0.60131 0.33741,0.008 0.61705,-0.24858 0.62461,-0.57281 l 0.0528,-2.26254 1.1025,1.3902 c 0.11766,0.13164 0.28259,0.20104 0.44978,0.20494 0.14559,0.003 0.2929,-0.0429 0.41199,-0.14117 0.25588,-0.21106 0.28485,-0.58175 0.0648,-0.82801 l -2.0024,-1.76834 0.0574,-2.46131 2.09711,1.28023 0.40344,2.64485 c 0.0879,0.31871 0.41472,0.49438 0.73,0.39233 0.31524,-0.10207 0.49959,-0.44317 0.41166,-0.76185 l -0.57179,-1.6811 1.92774,1.17684 c 0.27624,0.16865 0.64248,0.071 0.81801,-0.21804 0.17558,-0.28903 0.094,-0.66007 -0.18231,-0.82869 z"
       id="path951-6"
       style="fill:#f4f4f4;fill-opacity:1;stroke-width:0.02936075" />
    <path
       inkscape:connector-curvature="0"
       d="m -8.372909,142.15611 -1.92774,-1.17685 1.75203,-0.26242 c 0.17254,-0.0364 0.31495,-0.14487 0.40197,-0.28812 0.0757,-0.12473 0.1094,-0.27581 0.0841,-0.42832 -0.0543,-0.3277 -0.36002,-0.53818 -0.68275,-0.47018 l -2.52871,0.85482 -2.38218,-1.28692 2.43963,-1.1744 2.48609,0.97181 c 0.31925,0.083 0.63442,-0.11301 0.70394,-0.43783 0.0696,-0.32481 -0.13291,-0.65535 -0.45212,-0.73833 l -1.73789,-0.34384 1.98049,-1.08566 c 0.28381,-0.15558 0.38268,-0.52241 0.2208,-0.81935 -0.16189,-0.29694 -0.52315,-0.4115 -0.80696,-0.25595 l -1.98052,1.08567 0.64957,-1.65261 c 0.10266,-0.31426 -0.0655,-0.66356 -0.37572,-0.78022 -0.31018,-0.11664 -0.64484,0.0436 -0.74751,0.35786 l -0.52633,2.62312 -2.15453,1.18105 0.0574,-2.46126 2.08266,-1.67303 c 0.23131,-0.23572 0.21966,-0.60739 -0.0261,-0.83013 -0.24576,-0.2228 -0.6325,-0.2122 -0.86382,0.0235 l -1.16612,1.33726 0.0528,-2.2625 c 0.008,-0.32424 -0.25981,-0.59344 -0.59722,-0.60131 -0.33741,-0.008 -0.61705,0.24857 -0.62462,0.5728 l -0.0528,2.26251 -1.10249,-1.39019 c -0.22007,-0.24625 -0.6059,-0.27481 -0.86178,-0.0637 -0.25585,0.21103 -0.28482,0.58175 -0.0648,0.82801 l 2.00237,1.76834 -0.0574,2.46131 -2.0971,-1.28024 -0.40344,-2.64484 c -0.0879,-0.31871 -0.41476,-0.49438 -0.73003,-0.39234 -0.31533,0.10205 -0.49959,0.44315 -0.4117,0.76186 l 0.5718,1.6811 -1.92771,-1.17684 c -0.27624,-0.16865 -0.64249,-0.071 -0.81801,0.21803 -0.17553,0.28907 -0.0939,0.66011 0.18234,0.82876 l 1.92774,1.17684 -1.75207,0.26245 c -0.32273,0.068 -0.54035,0.38874 -0.48605,0.71644 0.0543,0.32768 0.36001,0.53816 0.68278,0.47015 l 2.52867,-0.85482 2.38218,1.28686 -2.43963,1.1744 -2.48609,-0.97181 c -0.31924,-0.083 -0.63439,0.11302 -0.70396,0.4378 -0.0695,0.32475 0.1329,0.65535 0.45211,0.73833 l 1.73792,0.34387 -1.98052,1.08566 c -0.28375,0.15559 -0.38261,0.52242 -0.22073,0.81935 0.16188,0.29694 0.52315,0.41153 0.80696,0.25595 l 1.98052,-1.08566 -0.64957,1.65257 c -0.0549,0.16801 -0.0324,0.34595 0.0478,0.49308 0.0698,0.12812 0.18349,0.23288 0.32787,0.28715 0.3102,0.11663 0.64486,-0.0436 0.74753,-0.35787 l 0.52634,-2.62315 2.15452,-1.18105 -0.0574,2.46132 -2.08265,1.67304 c -0.23135,0.23572 -0.21967,0.60736 0.0261,0.83012 0.24573,0.22271 0.6325,0.21221 0.86381,-0.0235 l 1.16612,-1.33726 -0.0528,2.26254 c -0.008,0.32423 0.25982,0.59344 0.59723,0.60131 0.33741,0.008 0.61705,-0.24857 0.62461,-0.5728 l 0.0528,-2.26254 1.1025,1.39019 c 0.11766,0.13164 0.28259,0.20104 0.44978,0.20494 0.14559,0.003 0.2929,-0.0429 0.41199,-0.14116 0.25588,-0.21107 0.28485,-0.58176 0.0648,-0.82801 l -2.0024,-1.76834 0.0574,-2.46132 2.09711,1.28024 0.40344,2.64484 c 0.0879,0.31871 0.41472,0.49438 0.73,0.39234 0.31524,-0.10208 0.49959,-0.44318 0.41166,-0.76186 l -0.57179,-1.6811 1.92774,1.17685 c 0.27624,0.16864 0.64248,0.071 0.81801,-0.21804 0.17559,-0.28904 0.094,-0.66008 -0.18231,-0.8287 z"
       id="path951-2"
       style="fill:#f4f4f4;fill-opacity:1;stroke-width:0.02936075" />
    <path
       inkscape:connector-curvature="0"
       d="m 28.296518,155.25227 -1.92774,-1.17685 1.75203,-0.26242 c 0.17254,-0.0364 0.31495,-0.14487 0.40197,-0.28812 0.0757,-0.12473 0.1094,-0.27581 0.0841,-0.42832 -0.0543,-0.3277 -0.36002,-0.53818 -0.68275,-0.47018 l -2.52871,0.85482 -2.38218,-1.28692 2.43963,-1.1744 2.48609,0.97181 c 0.31925,0.083 0.63442,-0.11301 0.70394,-0.43783 0.0696,-0.32481 -0.13291,-0.65535 -0.45212,-0.73833 l -1.73789,-0.34384 1.98049,-1.08566 c 0.28381,-0.15558 0.38268,-0.52241 0.2208,-0.81935 -0.16189,-0.29694 -0.52315,-0.4115 -0.80696,-0.25595 l -1.98052,1.08567 0.64957,-1.65261 c 0.10266,-0.31426 -0.0655,-0.66356 -0.37572,-0.78022 -0.31018,-0.11664 -0.64484,0.0436 -0.74751,0.35786 l -0.52633,2.62312 -2.15453,1.18105 0.0574,-2.46126 2.08266,-1.67303 c 0.23131,-0.23572 0.21966,-0.60739 -0.0261,-0.83013 -0.24576,-0.2228 -0.6325,-0.2122 -0.86382,0.0235 l -1.16612,1.33726 0.0528,-2.2625 c 0.008,-0.32424 -0.25981,-0.59344 -0.59722,-0.60131 -0.33741,-0.008 -0.61705,0.24857 -0.62462,0.5728 l -0.0528,2.26251 -1.10249,-1.39019 c -0.22007,-0.24625 -0.6059,-0.27481 -0.86178,-0.0637 -0.25585,0.21103 -0.28482,0.58175 -0.0648,0.82801 l 2.00237,1.76834 -0.0574,2.46131 -2.0971,-1.28024 -0.40344,-2.64484 c -0.0879,-0.31871 -0.41476,-0.49438 -0.73003,-0.39234 -0.31533,0.10205 -0.49959,0.44315 -0.4117,0.76186 l 0.5718,1.6811 -1.92771,-1.17684 c -0.27624,-0.16865 -0.64249,-0.071 -0.81801,0.21803 -0.17553,0.28907 -0.0939,0.66011 0.18234,0.82876 l 1.92774,1.17684 -1.75207,0.26245 c -0.32273,0.068 -0.54035,0.38874 -0.48605,0.71644 0.0543,0.32768 0.36001,0.53816 0.68278,0.47015 l 2.52867,-0.85482 2.38218,1.28686 -2.43963,1.1744 -2.48609,-0.97181 c -0.31924,-0.083 -0.63439,0.11302 -0.70396,0.4378 -0.0695,0.32475 0.1329,0.65535 0.45211,0.73833 l 1.73792,0.34387 -1.98052,1.08566 c -0.28375,0.15559 -0.38261,0.52242 -0.22073,0.81935 0.16188,0.29694 0.52315,0.41153 0.80696,0.25595 l 1.98052,-1.08566 -0.64957,1.65257 c -0.0549,0.16801 -0.0324,0.34595 0.0478,0.49308 0.0698,0.12812 0.18349,0.23288 0.32787,0.28715 0.3102,0.11663 0.64486,-0.0436 0.74753,-0.35787 l 0.52634,-2.62315 2.15452,-1.18105 -0.0574,2.46132 -2.08265,1.67304 c -0.23135,0.23572 -0.21967,0.60736 0.0261,0.83012 0.24573,0.22271 0.6325,0.21221 0.86381,-0.0235 l 1.16612,-1.33726 -0.0528,2.26254 c -0.008,0.32423 0.25982,0.59344 0.59723,0.60131 0.33741,0.008 0.61705,-0.24857 0.62461,-0.5728 l 0.0528,-2.26254 1.1025,1.39019 c 0.11766,0.13164 0.28259,0.20104 0.44978,0.20494 0.14559,0.003 0.2929,-0.0429 0.41199,-0.14116 0.25588,-0.21107 0.28485,-0.58176 0.0648,-0.82801 l -2.0024,-1.76834 0.0574,-2.46132 2.09711,1.28024 0.40344,2.64484 c 0.0879,0.31871 0.41472,0.49438 0.73,0.39234 0.31524,-0.10208 0.49959,-0.44318 0.41166,-0.76186 l -0.57179,-1.6811 1.92774,1.17685 c 0.27624,0.16864 0.64248,0.071 0.81801,-0.21804 0.17559,-0.28904 0.094,-0.66008 -0.18231,-0.8287 z"
       id="path951-2-8"
       style="fill:#f4f4f4;fill-opacity:1;stroke-width:0.02936075" />
    <path
       inkscape:connector-curvature="0"
       d="m -34.939454,200.52774 -1.92774,-1.17685 1.75203,-0.26242 c 0.17254,-0.0364 0.31495,-0.14487 0.40197,-0.28812 0.0757,-0.12473 0.1094,-0.27581 0.0841,-0.42832 -0.0543,-0.3277 -0.36002,-0.53818 -0.68275,-0.47018 l -2.52871,0.85482 -2.38218,-1.28692 2.43963,-1.1744 2.48609,0.97181 c 0.31925,0.083 0.63442,-0.11301 0.70394,-0.43783 0.0696,-0.32481 -0.13291,-0.65535 -0.45212,-0.73833 l -1.73789,-0.34384 1.98049,-1.08566 c 0.28381,-0.15558 0.38268,-0.52241 0.2208,-0.81935 -0.16189,-0.29694 -0.52315,-0.4115 -0.80696,-0.25595 l -1.98052,1.08567 0.64957,-1.65261 c 0.10266,-0.31426 -0.0655,-0.66356 -0.37572,-0.78022 -0.31018,-0.11664 -0.64484,0.0436 -0.74751,0.35786 l -0.52633,2.62312 -2.15453,1.18105 0.0574,-2.46126 2.08266,-1.67303 c 0.23131,-0.23572 0.21966,-0.60739 -0.0261,-0.83013 -0.24576,-0.2228 -0.6325,-0.2122 -0.86382,0.0235 l -1.16612,1.33726 0.0528,-2.2625 c 0.008,-0.32424 -0.25981,-0.59344 -0.59722,-0.60131 -0.33741,-0.008 -0.61705,0.24857 -0.62462,0.5728 l -0.0528,2.26251 -1.10249,-1.39019 c -0.22007,-0.24625 -0.6059,-0.27481 -0.86178,-0.0637 -0.25585,0.21103 -0.28482,0.58175 -0.0648,0.82801 l 2.00237,1.76834 -0.0574,2.46131 -2.0971,-1.28024 -0.40344,-2.64484 c -0.0879,-0.31871 -0.41476,-0.49438 -0.73003,-0.39234 -0.31533,0.10205 -0.49959,0.44315 -0.4117,0.76186 l 0.5718,1.6811 -1.92771,-1.17684 c -0.27624,-0.16865 -0.64249,-0.071 -0.81801,0.21803 -0.17553,0.28907 -0.0939,0.66011 0.18234,0.82876 l 1.92774,1.17684 -1.75207,0.26245 c -0.32273,0.068 -0.54035,0.38874 -0.48605,0.71644 0.0543,0.32768 0.36001,0.53816 0.68278,0.47015 l 2.52867,-0.85482 2.38218,1.28686 -2.43963,1.1744 -2.48609,-0.97181 c -0.31924,-0.083 -0.63439,0.11302 -0.70396,0.4378 -0.0695,0.32475 0.1329,0.65535 0.45211,0.73833 l 1.73792,0.34387 -1.98052,1.08566 c -0.28375,0.15559 -0.38261,0.52242 -0.22073,0.81935 0.16188,0.29694 0.52315,0.41153 0.80696,0.25595 l 1.98052,-1.08566 -0.64957,1.65257 c -0.0549,0.16801 -0.0324,0.34595 0.0478,0.49308 0.0698,0.12812 0.18349,0.23288 0.32787,0.28715 0.3102,0.11663 0.64486,-0.0436 0.74753,-0.35787 l 0.52634,-2.62315 2.15452,-1.18105 -0.0574,2.46132 -2.08265,1.67304 c -0.23135,0.23572 -0.21967,0.60736 0.0261,0.83012 0.24573,0.22271 0.6325,0.21221 0.86381,-0.0235 l 1.16612,-1.33726 -0.0528,2.26254 c -0.008,0.32423 0.25982,0.59344 0.59723,0.60131 0.33741,0.008 0.61705,-0.24857 0.62461,-0.5728 l 0.0528,-2.26254 1.1025,1.39019 c 0.11766,0.13164 0.28259,0.20104 0.44978,0.20494 0.14559,0.003 0.2929,-0.0429 0.41199,-0.14116 0.25588,-0.21107 0.28485,-0.58176 0.0648,-0.82801 l -2.0024,-1.76834 0.0574,-2.46132 2.09711,1.28024 0.40344,2.64484 c 0.0879,0.31871 0.41472,0.49438 0.73,0.39234 0.31524,-0.10208 0.49959,-0.44318 0.41166,-0.76186 l -0.57179,-1.6811 1.92774,1.17685 c 0.27624,0.16864 0.64248,0.071 0.81801,-0.21804 0.17559,-0.28904 0.094,-0.66008 -0.18231,-0.8287 z"
       id="path951-2-3"
       style="fill:#f4f4f4;fill-opacity:1;stroke-width:0.02936075" />
    <path
       inkscape:connector-curvature="0"
       d="m 44.386141,193.79254 -1.927736,-1.17685 1.752027,-0.26242 c 0.172539,-0.0364 0.31495,-0.14487 0.401969,-0.28812 0.0757,-0.12473 0.109401,-0.27581 0.0841,-0.42832 -0.0543,-0.3277 -0.360021,-0.53818 -0.682756,-0.47018 l -2.5287,0.85482 -2.38218,-1.28692 2.43963,-1.1744 2.48608,0.97181 c 0.319256,0.083 0.634425,-0.11301 0.703945,-0.43783 0.0696,-0.32481 -0.13291,-0.65535 -0.45212,-0.73833 L 42.542505,189.01196 44.523,187.9263 c 0.28381,-0.15558 0.38268,-0.52241 0.2208,-0.81935 -0.16189,-0.29694 -0.52315,-0.4115 -0.806955,-0.25595 l -1.98052,1.08567 0.64956,-1.65261 c 0.10267,-0.31426 -0.0655,-0.66356 -0.37572,-0.78022 -0.31018,-0.11664 -0.64483,0.0436 -0.7475,0.35786 l -0.52633,2.62312 -2.15453,1.18105 0.0574,-2.46126 2.08266,-1.67303 c 0.23131,-0.23572 0.21966,-0.60739 -0.0261,-0.83013 -0.24576,-0.2228 -0.6325,-0.2122 -0.86382,0.0235 l -1.16612,1.33726 0.0528,-2.2625 c 0.008,-0.32424 -0.25981,-0.59344 -0.59722,-0.60131 -0.33741,-0.008 -0.61705,0.24857 -0.62462,0.5728 l -0.0528,2.26251 -1.10249,-1.39019 c -0.22007,-0.24625 -0.6059,-0.27481 -0.86178,-0.0637 -0.25585,0.21103 -0.28482,0.58175 -0.0648,0.82801 l 2.00237,1.76834 -0.0574,2.46131 -2.0971,-1.28024 -0.40344,-2.64484 c -0.0879,-0.31871 -0.41476,-0.49438 -0.73003,-0.39234 -0.31533,0.10205 -0.49959,0.44315 -0.4117,0.76186 l 0.5718,1.6811 -1.92771,-1.17684 c -0.27624,-0.16865 -0.64249,-0.071 -0.81801,0.21803 -0.17553,0.28907 -0.0939,0.66011 0.18234,0.82876 l 1.92774,1.17684 -1.75207,0.26245 c -0.32273,0.068 -0.54035,0.38874 -0.48605,0.71644 0.0543,0.32768 0.36001,0.53816 0.68278,0.47015 l 2.52867,-0.85482 2.38218,1.28686 -2.43963,1.1744 -2.48609,-0.97181 c -0.31924,-0.083 -0.63439,0.11302 -0.70396,0.4378 -0.0695,0.32475 0.1329,0.65535 0.45211,0.73833 l 1.73792,0.34387 -1.98052,1.08566 c -0.28375,0.15559 -0.38261,0.52242 -0.22073,0.81935 0.16188,0.29694 0.52315,0.41153 0.80696,0.25595 l 1.98052,-1.08566 -0.64957,1.65257 c -0.0549,0.16801 -0.0324,0.34595 0.0478,0.49308 0.0698,0.12812 0.18349,0.23288 0.32787,0.28715 0.3102,0.11663 0.64486,-0.0436 0.74753,-0.35787 l 0.52634,-2.62315 2.15452,-1.18105 -0.0574,2.46132 -2.08265,1.67304 c -0.23135,0.23572 -0.21967,0.60736 0.0261,0.83012 0.24573,0.22271 0.6325,0.21221 0.86381,-0.0235 l 1.16612,-1.33726 -0.0528,2.26254 c -0.008,0.32423 0.25982,0.59344 0.59723,0.60131 0.33741,0.008 0.61705,-0.24857 0.62461,-0.5728 l 0.0528,-2.26254 1.1025,1.39019 c 0.11766,0.13164 0.28259,0.20104 0.44978,0.20494 0.14559,0.003 0.2929,-0.0429 0.41199,-0.14116 0.25588,-0.21107 0.28485,-0.58176 0.0648,-0.82801 l -2.0024,-1.76834 0.0574,-2.46132 2.09711,1.28024 0.40344,2.64484 c 0.0879,0.31871 0.41472,0.49438 0.73,0.39234 0.31524,-0.10208 0.49959,-0.44318 0.41166,-0.76186 l -0.57179,-1.6811 1.92774,1.17685 c 0.27624,0.16864 0.642476,0.071 0.818006,-0.21804 0.17559,-0.28904 0.094,-0.66008 -0.18231,-0.8287 z"
       id="path951-2-4"
       style="fill:#f4f4f4;fill-opacity:1;stroke-width:0.02936075" />
  </g>
</svg>
