<?xml version="1.0" encoding="UTF-8" standalone="no"?>
<!-- Created with Inkscape (http://www.inkscape.org/) -->

<svg
   xmlns:osb="http://www.openswatchbook.org/uri/2009/osb"
   xmlns:dc="http://purl.org/dc/elements/1.1/"
   xmlns:cc="http://creativecommons.org/ns#"
   xmlns:rdf="http://www.w3.org/1999/02/22-rdf-syntax-ns#"
   xmlns:svg="http://www.w3.org/2000/svg"
   xmlns="http://www.w3.org/2000/svg"
   xmlns:sodipodi="http://sodipodi.sourceforge.net/DTD/sodipodi-0.dtd"
   xmlns:inkscape="http://www.inkscape.org/namespaces/inkscape"
   width="105.83334mm"
   height="211.66667mm"
   viewBox="0 0 105.83334 211.66667"
   version="1.1"
   id="svg8"
   inkscape:version="0.92.4 (5da689c313, 2019-01-14)"
   sodipodi:docname="SV_sunny.svg">
  <title
     id="title23">svguy</title>
  <defs
     id="defs2">
    <linearGradient
       id="linearGradient6307"
       osb:paint="solid">
      <stop
         style="stop-color:#030000;stop-opacity:1;"
         offset="0"
         id="stop6305" />
    </linearGradient>
    <linearGradient
       id="linearGradient6224"
       osb:paint="solid">
      <stop
         style="stop-color:#ff0000;stop-opacity:1;"
         offset="0"
         id="stop6222" />
    </linearGradient>
  </defs>
  <sodipodi:namedview
     id="base"
     pagecolor="#ffffff"
     bordercolor="#666666"
     borderopacity="1.0"
     inkscape:pageopacity="0.0"
     inkscape:pageshadow="2"
     inkscape:zoom="2"
     inkscape:cx="106.0267"
     inkscape:cy="660.88005"
     inkscape:document-units="mm"
     inkscape:current-layer="layer2"
     showgrid="false"
     inkscape:window-width="1680"
     inkscape:window-height="997"
     inkscape:window-x="3832"
     inkscape:window-y="14"
     inkscape:window-maximized="1"
     inkscape:snap-nodes="true"
     inkscape:pagecheckerboard="true" />
  <metadata
     id="metadata5">
    <rdf:RDF>
      <cc:Work
         rdf:about="">
        <dc:format>image/svg+xml</dc:format>
        <dc:type
           rdf:resource="http://purl.org/dc/dcmitype/StillImage" />
        <dc:title>svguy</dc:title>
      </cc:Work>
    </rdf:RDF>
  </metadata>
  <g
     inkscape:label="body"
     inkscape:groupmode="layer"
     id="layer1"
     transform="translate(51.633907,-1.3481959)"
     style="opacity:1" />
  <g
     inkscape:groupmode="layer"
     id="layer4"
     inkscape:label="shirt"
     transform="translate(54.657707,1.5863191)" />
  <g
     inkscape:groupmode="layer"
     id="layer3"
     inkscape:label="arms"
     transform="translate(54.657707,1.5863191)" />
  <g
     inkscape:groupmode="layer"
     id="layer2"
     inkscape:label="face"
     transform="translate(54.657707,1.5863191)">
    <path
       inkscape:connector-curvature="0"
       style="opacity:1;fill:#222222;fill-opacity:1;stroke-width:0.13710259"
       d="m -34.148811,10.85958 c 1.273068,-0.0031 2.526434,0.07683 3.361339,0.240495 4.274449,0.837932 7.70391,2.656436 10.575915,5.60832 2.515816,2.585789 3.989132,5.326249 4.85628,9.032846 0.402406,1.720094 0.438256,5.522571 0.07045,7.4759 -1.462283,7.765752 -7.740911,13.789638 -15.6573,15.022137 -1.658465,0.258212 -4.770911,0.266886 -6.271254,0.01755 -4.110022,-0.683081 -7.794859,-2.638552 -10.737051,-5.697981 -2.484124,-2.583097 -4.313901,-6.176284 -4.96478,-9.749753 -0.490823,-2.694686 -0.231231,-6.344698 0.6421,-9.028263 2.2364,-6.871965 7.39323,-11.331252 14.645153,-12.664198 0.913312,-0.167871 2.206083,-0.253973 3.479152,-0.257034 z"
       id="path4663-7" />
    <path
       inkscape:connector-curvature="0"
       style="opacity:1;fill:#f48b22;fill-opacity:1;stroke-width:0.12588161"
       d="m -34.148811,11.458801 c 1.168877,-0.0028 2.319663,0.07054 3.086232,0.220813 3.924616,0.769351 7.073396,2.439023 9.71035,5.149314 2.309906,2.374159 3.662643,4.89033 4.45882,8.293565 0.369473,1.579315 0.402384,5.070584 0.06468,6.864044 -1.3426,7.130176 -7.107366,12.661044 -14.375845,13.792673 -1.522731,0.23708 -4.380441,0.245047 -5.757994,0.01614 -3.773645,-0.627178 -7.156895,-2.42261 -9.858295,-5.231644 -2.28081,-2.371687 -3.960829,-5.670794 -4.558445,-8.951798 -0.450647,-2.474142 -0.212299,-5.825424 0.589556,-8.289356 2.053363,-6.309538 6.788136,-10.403862 13.44654,-11.627715 0.838557,-0.154131 2.025526,-0.233186 3.194404,-0.235996 z"
       id="path4663-7-45" />
    <path
       style="fill:#222222;stroke:#222222;stroke-width:0.26458332px;stroke-linecap:butt;stroke-linejoin:miter;stroke-opacity:1;fill-opacity:1"
       d="M -19.732707,13.627227 C -11.927499,2.911602 -8.6202076,3.4407687 -8.6202076,3.4407687 L -17.086874,16.27306 Z"
       id="path4586"
       inkscape:connector-curvature="0" />
    <path
       style="fill:#f48b22;fill-opacity:1;stroke:#f48b22;stroke-width:0.25208735px;stroke-linecap:butt;stroke-linejoin:miter;stroke-opacity:1"
       d="M -19.356305,13.707219 C -12.065342,3.6338055 -8.8393157,3.543088 -8.8393157,3.543088 l -8.2365593,11.715295 z"
       id="path4586-4"
       inkscape:connector-curvature="0"
       sodipodi:nodetypes="cccc" />
    <path
       style="fill:#222222;fill-opacity:1;stroke:#222222;stroke-width:0.26458332px;stroke-linecap:butt;stroke-linejoin:miter;stroke-opacity:1"
       d="M -12.313944,30.787766 C 0.76673022,32.942258 1.7809258,36.134374 1.7809258,36.134374 L -13.487821,34.340635 Z"
       id="path4586-6"
       inkscape:connector-curvature="0" />
    <path
       style="fill:#f48b22;fill-opacity:1;stroke:#f48b22;stroke-width:0.25208735px;stroke-linecap:butt;stroke-linejoin:miter;stroke-opacity:1"
       d="M -12.216177,31.159946 C 0.0596566,33.143814 0.4003999,35.554709 0.4003999,35.554709 L -13.057394,33.979226 Z"
       id="path4586-4-5"
       inkscape:connector-curvature="0"
       sodipodi:nodetypes="cccc" />
    <path
       style="fill:#222222;fill-opacity:1;stroke:#222222;stroke-width:0.26458332px;stroke-linecap:butt;stroke-linejoin:miter;stroke-opacity:1"
       d="m -29.608822,50.278267 c 1.814022,13.132221 -0.934835,15.04585 -0.934835,15.04585 l -2.806291,-15.11545 z"
       id="path4586-9"
       inkscape:connector-curvature="0" />
    <path
       style="fill:#f48b22;fill-opacity:1;stroke:#f48b22;stroke-width:0.25208735px;stroke-linecap:butt;stroke-linejoin:miter;stroke-opacity:1"
       d="m -30.009798,50.796014 c 1.738762,12.312941 -0.397454,13.128308 -0.397454,13.128308 l -2.306657,-13.262669 z"
       id="path4586-4-1"
       inkscape:connector-curvature="0"
       sodipodi:nodetypes="cccc" />
    <path
       style="fill:#222222;fill-opacity:1;stroke:#222222;stroke-width:0.26458332px;stroke-linecap:butt;stroke-linejoin:miter;stroke-opacity:1"
       d="M -43.941885,48.263258 C -50.831547,59.589265 -54.17133,59.336199 -54.17133,59.336199 l 7.373305,-13.490238 z"
       id="path4586-8"
       inkscape:connector-curvature="0" />
    <path
       style="fill:#f48b22;fill-opacity:1;stroke:#f48b22;stroke-width:0.25208735px;stroke-linecap:butt;stroke-linejoin:miter;stroke-opacity:1"
       d="m -44.323624,48.214757 c -6.430448,10.643361 -9.059062,10.4556 -9.059062,10.4556 l 6.659673,-11.959321 z"
       id="path4586-4-3"
       inkscape:connector-curvature="0"
       sodipodi:nodetypes="cccc" />
    <path
       style="fill:#222222;fill-opacity:1;stroke:#222222;stroke-width:0.26458332px;stroke-linecap:butt;stroke-linejoin:miter;stroke-opacity:1"
       d="M -47.364669,12.172758 C -55.519045,1.7203871 -54.100292,-1.3136417 -54.100292,-1.3136417 l 10.007338,11.6707047 z"
       id="path4586-84"
       inkscape:connector-curvature="0" />
    <path
       style="fill:#f48b22;fill-opacity:1;stroke:#f48b22;stroke-width:0.25208735px;stroke-linecap:butt;stroke-linejoin:miter;stroke-opacity:1"
       d="M -47.184197,11.832895 C -54.862646,2.051626 -53.851735,-0.44341324 -53.851735,-0.44341324 L -44.654379,10.330893 Z"
       id="path4586-4-9"
       inkscape:connector-curvature="0"
       sodipodi:nodetypes="cccc" />
    <path
       style="fill:#222222;fill-opacity:1;stroke:#222222;stroke-width:0.26458332px;stroke-linecap:butt;stroke-linejoin:miter;stroke-opacity:1"
       d="m -36.593655,6.8672992 c 5.603769,-12.0143106 8.951139,-12.1296605 8.951139,-12.1296605 l -5.846737,14.218572 z"
       id="path4586-85"
       inkscape:connector-curvature="0" />
    <path
       style="fill:#f48b22;fill-opacity:1;stroke:#f48b22;stroke-width:0.25208735px;stroke-linecap:butt;stroke-linejoin:miter;stroke-opacity:1"
       d="m -35.963344,6.6981758 c 5.222325,-11.2853504 8.125428,-11.8180722 8.125428,-11.8180722 L -33.72113,8.4442382 Z"
       id="path4586-4-6"
       inkscape:connector-curvature="0"
       sodipodi:nodetypes="cccc" />
    <path
       style="fill:#222222;fill-opacity:1;stroke:#222222;stroke-width:0.26458332px;stroke-linecap:butt;stroke-linejoin:miter;stroke-opacity:1"
       d="M -13.145673,21.19747 C -0.88859553,16.146732 1.6534886,18.327557 1.6534886,18.327557 L -12.274437,24.8364 Z"
       id="path4586-86"
       inkscape:connector-curvature="0" />
    <path
       style="fill:#f48b22;fill-opacity:1;stroke:#f48b22;stroke-width:0.25208735px;stroke-linecap:butt;stroke-linejoin:miter;stroke-opacity:1"
       d="M -12.632837,21.357281 C -1.1499537,16.584944 1.4132236,18.300165 1.4132236,18.300165 l -13.1025506,5.546391 z"
       id="path4586-4-52"
       inkscape:connector-curvature="0"
       sodipodi:nodetypes="cccc" />
    <path
       style="fill:#222222;fill-opacity:1;stroke:#222222;stroke-width:0.26458332px;stroke-linecap:butt;stroke-linejoin:miter;stroke-opacity:1"
       d="m -15.797246,43.523199 c 9.6885365,9.048654 8.7616797,12.267214 8.7616797,12.267214 L -18.744785,45.828167 Z"
       id="path4586-81"
       inkscape:connector-curvature="0" />
    <path
       style="fill:#f48b22;fill-opacity:1;stroke:#f48b22;stroke-width:0.25208735px;stroke-linecap:butt;stroke-linejoin:miter;stroke-opacity:1"
       d="m -15.641233,44.333586 c 9.1135232,8.460231 8.5307102,11.226916 8.5307102,11.226916 L -18.053883,45.898515 Z"
       id="path4586-4-57"
       inkscape:connector-curvature="0"
       sodipodi:nodetypes="cccc" />
  </g>
</svg>
