<?xml version="1.0" encoding="UTF-8" standalone="no"?>
<!-- Created with Inkscape (http://www.inkscape.org/) -->

<svg
   xmlns:osb="http://www.openswatchbook.org/uri/2009/osb"
   xmlns:dc="http://purl.org/dc/elements/1.1/"
   xmlns:cc="http://creativecommons.org/ns#"
   xmlns:rdf="http://www.w3.org/1999/02/22-rdf-syntax-ns#"
   xmlns:svg="http://www.w3.org/2000/svg"
   xmlns="http://www.w3.org/2000/svg"
   xmlns:sodipodi="http://sodipodi.sourceforge.net/DTD/sodipodi-0.dtd"
   xmlns:inkscape="http://www.inkscape.org/namespaces/inkscape"
   width="105.83334mm"
   height="211.66667mm"
   viewBox="0 0 105.83334 211.66667"
   version="1.1"
   id="svg8"
   inkscape:version="0.92.4 (5da689c313, 2019-01-14)"
   sodipodi:docname="SVguy_blank.svg">
  <title
     id="title23">svguy</title>
  <defs
     id="defs2">
    <linearGradient
       id="linearGradient6307"
       osb:paint="solid">
      <stop
         style="stop-color:#030000;stop-opacity:1;"
         offset="0"
         id="stop6305" />
    </linearGradient>
    <linearGradient
       id="linearGradient6224"
       osb:paint="solid">
      <stop
         style="stop-color:#ff0000;stop-opacity:1;"
         offset="0"
         id="stop6222" />
    </linearGradient>
  </defs>
  <sodipodi:namedview
     id="base"
     pagecolor="#ffffff"
     bordercolor="#666666"
     borderopacity="1.0"
     inkscape:pageopacity="0.0"
     inkscape:pageshadow="2"
     inkscape:zoom="1"
     inkscape:cx="254.00008"
     inkscape:cy="434.02175"
     inkscape:document-units="mm"
     inkscape:current-layer="layer4"
     showgrid="false"
     inkscape:window-width="1680"
     inkscape:window-height="997"
     inkscape:window-x="3832"
     inkscape:window-y="14"
     inkscape:window-maximized="1"
     inkscape:snap-nodes="true"
     inkscape:pagecheckerboard="true" />
  <metadata
     id="metadata5">
    <rdf:RDF>
      <cc:Work
         rdf:about="">
        <dc:format>image/svg+xml</dc:format>
        <dc:type
           rdf:resource="http://purl.org/dc/dcmitype/StillImage" />
        <dc:title>svguy</dc:title>
      </cc:Work>
    </rdf:RDF>
  </metadata>
  <g
     inkscape:label="body"
     inkscape:groupmode="layer"
     id="layer1"
     transform="translate(-3.0238001,-2.9345168)"
     style="opacity:1">
    <path
       style="fill:#222222;fill-opacity:1;stroke-width:1.33333337"
       d="M 200.89258,2.0644531 C 174.72291,2.1065683 145.02739,8.1136286 121.44922,18.541016 109.09721,24.003656 89.315512,36.786884 75.390625,48.302734 53.50371,66.40316 33.055432,92.240697 22.736328,114.83594 c -2.570309,5.62808 -5.802453,12.66407 -7.18164,15.63476 -1.379184,2.9707 -3.98709,11.0707 -5.7968755,18 -9.74635843,37.31679 -8.6707053,74.23564 3.2246095,110.63672 11.820193,36.17116 38.93388,73.35482 70.24414,96.33008 l 6.861329,5.03516 -10.414063,16.29882 c -30.526571,47.77663 -56.480499,99.39827 -66.515625,132.29883 -8.1830852,26.82853 -8.2053873,37.04828 -0.101562,43.86719 6.185215,5.20452 25.792913,10.47833 50.246093,13.51367 4.817802,0.59804 7,1.46947 7,2.79688 0,1.06076 -2.676432,12.5847 -5.947265,25.60937 -3.270837,13.02471 -6.833329,28.75156 -7.916016,34.94727 -1.082687,6.1957 -2.627715,14.19936 -3.433594,17.78515 -6.622125,29.46531 -10.155501,78.35649 -6.667968,92.25782 4.365728,17.40189 7.903546,19.64501 32.572265,20.65429 32.054044,1.31142 102.525224,1.29773 107.125004,-0.0215 2.40955,-0.69105 7.20593,-3.55736 10.6582,-6.36914 3.45228,-2.81174 7.21765,-5.82914 8.36719,-6.70508 1.73238,-1.32008 3.15771,-0.58301 8.33398,4.30664 8.57768,8.10274 11.98039,8.78507 36.02539,7.23633 40.58555,-2.61411 70.61466,-7.30306 81.25,-12.68945 8.04475,-4.07437 8.9668,-5.57515 8.9668,-14.58985 0,-15.95686 -7.80587,-104.0146 -12.64063,-142.59961 -1.10265,-8.79998 -2.01033,-16.69861 -2.01562,-17.55078 -0.006,-0.85224 2.53958,-1.96602 5.65625,-2.47656 10.85634,-1.77846 25.92621,-8.53321 32.77344,-14.68945 12.39954,-11.14829 13.64143,-19.36456 6.0625,-40.08204 -2.65629,-7.26111 -5.35631,-13.77207 -6,-14.46875 -0.64371,-0.69668 -1.16993,-2.05495 -1.16993,-3.01953 0,-5.04975 -27.80313,-69.97162 -47.50195,-110.91797 -6.14002,-12.76282 -11.16406,-23.38505 -11.16406,-23.60351 0,-0.21865 2.78903,-2.31781 6.19922,-4.66406 16.81797,-11.5711 40.69079,-36.3492 51.58398,-53.54102 37.87546,-59.77579 41.79024,-138.01054 9.85742,-196.98633 C 339.20891,47.843974 284.6418,10.717183 218.32812,3.0078125 212.78288,2.3631425 206.93173,2.0547342 200.89258,2.0644531 Z"
       id="path4665"
       transform="matrix(0.26458333,0,0,0.26458333,3.0238001,2.934515)"
       inkscape:connector-curvature="0" />
  </g>
  <g
     inkscape:groupmode="layer"
     id="layer4"
     inkscape:label="shirt"
     transform="translate(0,-1.7529297e-6)">
    <path
       style="opacity:1;fill:#222222;fill-opacity:1;stroke-width:1.33333337"
       d="m 98.527344,366.82422 c 1.030175,0.088 5.481636,2.10542 10.775386,4.91992 18.27387,9.71558 37.69892,15.40221 68.86915,20.16211 7.67317,1.17173 20.69376,17.37595 25.38476,31.58984 0.89071,2.69885 2.03926,4.90625 2.55274,4.90625 2.1024,0 5.67439,-5.84631 9.34179,-15.29101 2.13833,-5.50692 5.73585,-12.89284 7.99414,-16.41211 4.0878,-6.37028 4.15915,-6.40898 15.78907,-8.82617 13.42368,-2.79001 29.85159,-8.34771 44.75976,-15.14258 5.69717,-2.59669 10.55425,-4.48319 10.79297,-4.19141 0.56143,0.6861 6.47891,63.56448 7.44336,79.0918 0.36787,5.92265 1.15266,16.70085 2.04101,22.85547 -2.05259,-5.16717 -3.88689,-8.75 -4.79882,-8.75 -1.49206,0 -1.67105,-0.86759 2.13672,10.35156 4.9221,14.50265 8.74968,36.25582 12.02148,68.31445 1.0852,10.63336 2.56932,25.03335 3.29883,32 0.7295,6.96666 1.33638,14.31731 1.34961,16.33399 l 0.0234,3.66601 h -72.02148 c -93.19768,0 -148.738968,2.97385 -165.8125,8.87891 -7.020333,2.42808 -9.148235,2.29059 -8.382812,-0.54492 0.346423,-1.28334 3.756463,-16.13333 7.578124,-33 11.402159,-50.32275 20.823628,-82.4782 30.150388,-102.91406 2.343,-5.13374 3.15153,-9.25449 3.13867,-16 -0.0259,-13.61462 -7.2665,-56.04176 -12.66796,-74.23047 -1.089997,-3.67038 -1.982426,-7.1274 -1.982426,-7.6836 0,-0.0695 0.07744,-0.0966 0.22461,-0.084 z"
       id="path4657"
       transform="scale(0.26458333)"
       inkscape:connector-curvature="0" />
  </g>
  <g
     inkscape:groupmode="layer"
     id="layer3"
     inkscape:label="arms"
     transform="translate(0,-1.7529297e-6)">
    <path
       style="opacity:1;fill:#222222;fill-opacity:1;stroke-width:1.33333337"
       d="m 92.724609,365.73828 c 3.558435,0.45295 14.711711,54.52066 15.824221,77.58594 l 0.8164,16.92187 -6.71875,13.7461 c -3.695765,7.55958 -9.218476,21.84416 -12.27148,31.74414 -3.053008,9.90002 -7.86666,25.49937 -10.697266,34.66601 -2.830605,9.16668 -5.538723,18.01794 -6.017578,19.66797 -1.270273,4.377 -2.011472,4.25293 -30.828125,-5.13281 -11.655152,-3.79616 -21.140035,-7.66729 -22.517578,-9.18945 -1.884453,-2.0823 -2.203156,-3.92351 -1.529297,-8.83985 2.060773,-15.03496 18.70871,-56.44885 42.814453,-106.50586 4.944072,-10.26667 13.77746,-28.86533 19.63086,-41.33203 5.853399,-12.46666 10.882124,-22.90914 11.173828,-23.20508 0.09839,-0.0998 0.205524,-0.14156 0.320312,-0.12695 z"
       id="path4661"
       transform="scale(0.26458333)"
       inkscape:connector-curvature="0" />
    <path
       style="opacity:1;fill:#222222;fill-opacity:1;stroke-width:1.33333337"
       d="m 299.60938,366.40234 8.46874,24.66797 c 15.46889,45.04762 36.50384,98.6408 49.6543,126.51172 3.24695,6.88154 5.9043,14.42871 5.9043,16.77149 0,6.0551 -6.59282,15.23273 -14.75586,20.54296 -6.37079,4.14429 -20.99083,10.83985 -23.66992,10.83985 -0.62983,0 -1.8741,-5.24936 -2.76367,-11.66602 -0.88958,-6.41669 -2.15829,-14.36799 -2.82032,-17.66797 -0.66204,-3.30002 -2.14734,-11.4 -3.30078,-18 -1.15343,-6.6 -2.72066,-15.2987 -3.48242,-19.33203 -1.33323,-7.05924 -4.17738,-16.62425 -6.95508,-24.31054 1.55912,-3.50099 0.26634,-31.26311 -2.84765,-58.35743 -1.13783,-9.90002 -2.37515,-25.20001 -2.75,-34 z"
       id="path4659"
       transform="scale(0.26458333)"
       inkscape:connector-curvature="0" />
  </g>
  <g
     inkscape:groupmode="layer"
     id="layer2"
     inkscape:label="face"
     transform="translate(0,-1.7529297e-6)">
    <path
       style="opacity:1;fill:#222222;fill-opacity:1;stroke-width:1.33333337"
       d="m 194.53711,10.527344 c 12.28313,-0.03001 24.37615,0.753095 32.43164,2.357422 41.24175,8.213684 74.33066,26.039264 102.04102,54.974609 24.27367,25.346763 38.48884,52.209665 46.85546,88.542965 3.8826,16.86093 4.22848,54.13407 0.67969,73.28125 -14.1087,76.12249 -74.68765,135.17059 -151.06836,147.25196 -16.00163,2.53111 -46.03181,2.61613 -60.50781,0.17187 C 125.31348,370.41165 89.760629,351.24344 61.373047,321.25391 37.40518,295.93353 19.750706,260.71192 13.470703,225.68359 8.7350647,199.26938 11.23971,163.49075 19.666016,137.18555 41.243758,69.824274 90.999052,26.112851 160.96875,13.046875 c 8.812,-1.645534 21.28523,-2.489525 33.56836,-2.519531 z"
       id="path4663"
       transform="scale(0.26458333)"
       inkscape:connector-curvature="0" />
    <path
       style="opacity:1;fill:#222222;fill-opacity:1;stroke-width:1.33333337"
       d="m 222.39844,390.6875 -5.55078,10.29297 c -3.05364,5.66124 -6.27346,12.73358 -7.1543,15.7168 l -1.60156,5.42382 -6.16016,-10.52539 c -3.38807,-5.78921 -7.69001,-11.93903 -9.56055,-13.66601 -1.87053,-1.72698 -3.40234,-3.67763 -3.40234,-4.33399 0,-0.65635 4.3513,-1.19752 9.66797,-1.20508 5.31667,-0.006 12.83843,-0.39185 16.71484,-0.85742 z"
       id="path4655"
       transform="scale(0.26458333)"
       inkscape:connector-curvature="0" />
  </g>
</svg>
